<svg xmlns="http://www.w3.org/2000/svg" width="300" viewBox="0 0 300 112.5" height="112.5" version="1.0"><defs><clipPath id="a"><path d="M 0.664062 0 L 299.335938 0 L 299.335938 112.003906 L 0.664062 112.003906 Z M 0.664062 0"/></clipPath><clipPath id="b"><path d="M 154 0 L 187 0 L 187 11 L 154 11 Z M 154 0"/></clipPath><clipPath id="c"><path d="M 171.785156 20.402344 L 149.824219 2.4375 L 169.679688 -21.835938 L 191.640625 -3.871094 Z M 171.785156 20.402344"/></clipPath><clipPath id="d"><path d="M 171.785156 20.402344 L 149.824219 2.4375 L 169.679688 -21.835938 L 191.640625 -3.871094 Z M 171.785156 20.402344"/></clipPath><clipPath id="e"><path d="M 261 0 L 299.335938 0 L 299.335938 31 L 261 31 Z M 261 0"/></clipPath><clipPath id="f"><path d="M 320.898438 25.679688 L 268.109375 35.839844 L 260.203125 -5.21875 L 312.992188 -15.382812 Z M 320.898438 25.679688"/></clipPath><clipPath id="g"><path d="M 320.898438 25.679688 L 268.109375 35.839844 L 260.203125 -5.21875 L 312.992188 -15.382812 Z M 320.898438 25.679688"/></clipPath><clipPath id="h"><path d="M 0.664062 0 L 33 0 L 33 41 L 0.664062 41 Z M 0.664062 0"/></clipPath><clipPath id="i"><path d="M -41.175781 29.035156 L -11.292969 -31.984375 L 36.320312 -8.667969 L 6.433594 52.355469 Z M -41.175781 29.035156"/></clipPath><clipPath id="j"><path d="M -41.175781 29.035156 L -11.292969 -31.984375 L 36.320312 -8.667969 L 6.433594 52.355469 Z M -41.175781 29.035156"/></clipPath><clipPath id="k"><path d="M 263 82 L 299.335938 82 L 299.335938 112.003906 L 263 112.003906 Z M 263 82"/></clipPath><clipPath id="l"><path d="M 308.734375 85.199219 L 301.5 136.964844 L 261.566406 131.382812 L 268.804688 79.621094 Z M 308.734375 85.199219"/></clipPath><clipPath id="m"><path d="M 308.734375 85.199219 L 301.5 136.964844 L 261.566406 131.382812 L 268.804688 79.621094 Z M 308.734375 85.199219"/></clipPath><clipPath id="n"><path d="M 233.628906 46.769531 L 271.710938 46.769531 L 271.710938 85.597656 L 233.628906 85.597656 Z M 233.628906 46.769531"/></clipPath><clipPath id="o"><path d="M 92.839844 5.046875 L 130.921875 5.046875 L 130.921875 43.875 L 92.839844 43.875 Z M 92.839844 5.046875"/></clipPath><clipPath id="p"><path d="M 135 97 L 176 97 L 176 112.003906 L 135 112.003906 Z M 135 97"/></clipPath><clipPath id="q"><path d="M 136.714844 96.324219 L 176.207031 98.839844 L 174.023438 133.117188 L 134.53125 130.601562 Z M 136.714844 96.324219"/></clipPath><clipPath id="r"><path d="M 136.714844 96.324219 L 176.207031 98.839844 L 174.023438 133.117188 L 134.53125 130.601562 Z M 136.714844 96.324219"/></clipPath><clipPath id="s"><path d="M 13 99 L 57 99 L 57 112.003906 L 13 112.003906 Z M 13 99"/></clipPath><clipPath id="t"><path d="M 55.65625 142.964844 L 11.664062 140.617188 L 13.898438 98.859375 L 57.886719 101.210938 Z M 55.65625 142.964844"/></clipPath><clipPath id="u"><path d="M 55.65625 142.964844 L 11.664062 140.617188 L 13.898438 98.859375 L 57.886719 101.210938 Z M 55.65625 142.964844"/></clipPath></defs><g clip-path="url(#a)" fill="#FFF"><path d="M 0.664062 0 L 299.335938 0 L 299.335938 119.46875 L 0.664062 119.46875 Z M 0.664062 0"/><path d="M 0.664062 0 L 299.335938 0 L 299.335938 112.003906 L 0.664062 112.003906 Z M 0.664062 0"/><path d="M 0.664062 0 L 299.335938 0 L 299.335938 112.003906 L 0.664062 112.003906 Z M 0.664062 0"/></g><g clip-path="url(#b)"><g clip-path="url(#c)"><g clip-path="url(#d)"><path fill="#5FB8A3" d="M 185.171875 -8.316406 C 186.496094 -8.082031 187.164062 -6.589844 186.484375 -5.433594 C 185.890625 -4.421875 185.164062 -3.085938 184.300781 -1.332031 C 181.246094 4.890625 181.539062 8.4375 176.226562 8.539062 C 170.914062 8.644531 176.722656 -2.011719 176.722656 -2.011719 C 176.722656 -2.011719 170.089844 13.207031 164.679688 10.234375 C 159.265625 7.261719 167.003906 1 167.003906 1 C 167.003906 1 158.890625 9.855469 155.023438 6.410156 C 151.160156 2.964844 159.554688 -5.875 163.523438 -6.113281 C 163.523438 -6.113281 157.554688 -6.929688 161.25 -11.464844 C 164.941406 -16.003906 172.65625 -9.109375 172.65625 -9.109375 C 172.65625 -9.109375 165.730469 -14.488281 167.964844 -16.152344 C 169.835938 -17.550781 178.503906 -9.480469 185.171875 -8.316406 Z M 185.171875 -8.316406"/></g></g></g><g clip-path="url(#e)"><g clip-path="url(#f)"><g clip-path="url(#g)"><path fill="#DBA35B" d="M 294.921875 30.40625 C 293.988281 30.304688 293.140625 30.1875 292.464844 29.867188 C 290.410156 28.898438 288.96875 26.632812 288.074219 24.734375 C 287.628906 23.785156 287.316406 22.78125 286.878906 21.832031 C 286.421875 20.847656 285.882812 19.90625 285.371094 18.964844 C 284.613281 17.5625 283.765625 16.167969 282.617188 15.078125 C 282.292969 14.757812 282 14.378906 281.632812 14.082031 C 280.71875 13.367188 279.71875 12.757812 278.652344 12.28125 C 277.996094 11.964844 277.253906 11.792969 276.53125 11.523438 C 276.226562 11.414062 275.902344 11.398438 275.613281 11.285156 C 275.15625 11.117188 274.609375 11.121094 274.171875 10.964844 L 273.894531 10.933594 C 273.445312 10.773438 272.890625 10.777344 272.425781 10.613281 L 269.863281 9.964844 C 269.503906 9.835938 269.113281 9.835938 268.773438 9.714844 C 268.433594 9.59375 268.128906 9.601562 267.816406 9.480469 C 266.769531 9.078125 265.824219 8.742188 265.066406 8.128906 C 264.785156 7.902344 264.503906 7.640625 264.234375 7.394531 C 264.152344 7.320312 264.09375 7.195312 264.011719 7.109375 C 263.78125 6.886719 263.570312 6.640625 263.390625 6.375 C 262.625 5.042969 261.914062 3.613281 261.582031 1.9375 C 261.539062 1.710938 261.5625 1.519531 261.523438 1.269531 C 261.414062 0.441406 261.5625 -0.960938 261.917969 -1.71875 C 262.25 -2.378906 262.699219 -2.976562 263.238281 -3.488281 C 263.4375 -3.660156 263.644531 -3.828125 263.863281 -3.972656 C 264.414062 -4.421875 265.011719 -4.816406 265.636719 -5.167969 C 266 -5.363281 266.371094 -5.605469 266.753906 -5.78125 C 268.730469 -6.714844 271.015625 -7.285156 273.339844 -7.746094 C 274.390625 -7.949219 275.480469 -8.015625 276.546875 -8.179688 C 277.582031 -8.335938 278.652344 -8.277344 279.707031 -8.402344 C 280.058594 -8.445312 280.417969 -8.402344 280.75 -8.441406 L 284.730469 -8.441406 C 285.140625 -8.488281 285.53125 -8.394531 285.90625 -8.414062 L 287.371094 -8.328125 C 287.703125 -8.359375 288.125 -8.253906 288.46875 -8.285156 L 288.898438 -8.230469 C 289.230469 -8.261719 289.621094 -8.105469 289.996094 -8.144531 C 290.5 -8.191406 291.160156 -8.027344 291.695312 -7.960938 C 292.074219 -7.941406 292.441406 -7.890625 292.808594 -7.800781 C 293.007812 -7.730469 293.300781 -7.761719 293.476562 -7.699219 C 293.792969 -7.589844 294.164062 -7.628906 294.445312 -7.539062 C 294.726562 -7.445312 295.175781 -7.449219 295.480469 -7.335938 L 296.058594 -7.242188 C 296.472656 -7.09375 296.980469 -7.0625 297.386719 -6.910156 L 297.910156 -6.808594 L 299.570312 -6.320312 L 301.441406 -5.640625 C 302.753906 -5.015625 304.054688 -4.5 305.246094 -3.804688 C 307.046875 -2.746094 308.589844 -1.441406 310.382812 -0.375 C 311.757812 0.441406 313.046875 1.242188 314.132812 2.277344 C 314.808594 2.953125 315.375 3.730469 315.820312 4.582031 C 315.992188 4.890625 316.210938 5.195312 316.367188 5.515625 C 316.898438 6.636719 317.328125 7.796875 317.660156 8.996094 C 317.746094 9.316406 317.753906 9.613281 317.828125 9.957031 C 317.972656 10.722656 317.996094 11.585938 318.09375 12.410156 C 318.128906 12.726562 318.046875 12.996094 318.074219 13.324219 C 318.089844 13.722656 318.058594 14.128906 318 14.523438 L 317.945312 14.914062 C 317.753906 15.457031 317.753906 16.078125 317.550781 16.582031 C 317.261719 17.378906 316.90625 18.15625 316.488281 18.898438 C 316.03125 19.667969 315.394531 20.300781 314.824219 20.929688 C 313.800781 22.066406 312.53125 23.175781 311.183594 23.894531 C 310.433594 24.296875 309.636719 24.621094 308.859375 24.972656 C 308.523438 25.125 308.167969 25.183594 307.824219 25.34375 C 307.367188 25.542969 306.898438 25.710938 306.421875 25.851562 C 306.164062 25.925781 305.816406 25.949219 305.574219 26.050781 L 305.015625 26.523438 C 304.652344 26.804688 304.277344 27.066406 303.878906 27.304688 C 303.773438 27.367188 303.675781 27.488281 303.570312 27.550781 C 302.730469 28.027344 301.890625 28.535156 301.015625 28.953125 C 300.53125 29.183594 300.03125 29.371094 299.546875 29.59375 C 299.347656 29.664062 299.148438 29.730469 298.933594 29.777344 C 298.15625 30.023438 297.363281 30.210938 296.550781 30.332031 L 295.375 30.414062 C 295.222656 30.425781 295.039062 30.351562 294.921875 30.40625"/></g></g></g><g clip-path="url(#h)"><g clip-path="url(#i)"><g clip-path="url(#j)"><path fill="#FC9881" d="M -26.195312 -0.785156 C -25.382812 -1.644531 -24.617188 -2.414062 -23.777344 -2.851562 C -21.234375 -4.1875 -17.839844 -3.914062 -15.238281 -3.371094 C -13.933594 -3.097656 -12.679688 -2.644531 -11.386719 -2.367188 C -10.042969 -2.074219 -8.675781 -1.898438 -7.335938 -1.703125 C -5.335938 -1.394531 -3.277344 -1.1875 -1.300781 -1.515625 C -0.726562 -1.601562 -0.121094 -1.609375 0.453125 -1.75 C 1.878906 -2.125 3.257812 -2.675781 4.546875 -3.386719 C 5.367188 -3.808594 6.109375 -4.425781 6.933594 -4.953125 C 7.277344 -5.171875 7.539062 -5.492188 7.875 -5.691406 C 8.390625 -6.027344 8.804688 -6.582031 9.292969 -6.90625 L 9.539062 -7.164062 C 10.042969 -7.492188 10.457031 -8.054688 10.980469 -8.402344 L 13.585938 -10.492188 C 13.988281 -10.757812 14.289062 -11.152344 14.667969 -11.402344 C 15.050781 -11.648438 15.277344 -11.964844 15.632812 -12.1875 C 16.839844 -12.941406 17.898438 -13.636719 19.097656 -13.933594 C 19.539062 -14.046875 20.019531 -14.128906 20.472656 -14.214844 C 20.613281 -14.238281 20.785156 -14.203125 20.9375 -14.222656 C 21.335938 -14.285156 21.746094 -14.308594 22.148438 -14.289062 C 24.085938 -14.046875 26.074219 -13.671875 28.019531 -12.730469 C 28.285156 -12.601562 28.464844 -12.433594 28.742188 -12.28125 C 29.667969 -11.761719 30.972656 -10.542969 31.46875 -9.605469 C 31.882812 -8.765625 32.148438 -7.859375 32.253906 -6.921875 C 32.28125 -6.59375 32.292969 -6.253906 32.273438 -5.925781 C 32.304688 -5.023438 32.253906 -4.121094 32.132812 -3.226562 C 32.054688 -2.707031 32.019531 -2.148438 31.90625 -1.628906 C 31.347656 1.078125 30.179688 3.820312 28.882812 6.515625 C 28.289062 7.734375 27.527344 8.878906 26.878906 10.082031 C 26.25 11.246094 25.375 12.28125 24.699219 13.445312 C 24.476562 13.832031 24.160156 14.160156 23.945312 14.523438 L 20.917969 18.542969 C 20.648438 18.988281 20.253906 19.316406 19.992188 19.703125 L 18.792969 21.121094 C 18.570312 21.480469 18.140625 21.824219 17.910156 22.195312 L 17.53125 22.585938 C 17.308594 22.949219 16.855469 23.222656 16.605469 23.628906 C 16.269531 24.171875 15.601562 24.71875 15.128906 25.203125 C 14.820312 25.570312 14.492188 25.90625 14.117188 26.207031 C 13.894531 26.355469 13.703125 26.671875 13.507812 26.800781 C 13.15625 27.042969 12.910156 27.441406 12.605469 27.65625 C 12.300781 27.871094 11.957031 28.328125 11.613281 28.546875 L 11.078125 29.0625 C 10.613281 29.367188 10.195312 29.855469 9.734375 30.148438 L 9.230469 30.597656 L 7.46875 31.902344 L 5.359375 33.273438 C 3.726562 34.121094 2.214844 35.042969 0.601562 35.710938 C -1.839844 36.71875 -4.335938 37.289062 -6.785156 38.28125 C -8.65625 39.046875 -10.449219 39.738281 -12.320312 40.046875 C -13.523438 40.210938 -14.742188 40.191406 -15.941406 39.992188 C -16.382812 39.929688 -16.863281 39.917969 -17.304688 39.832031 C -18.847656 39.511719 -20.347656 39.0625 -21.8125 38.484375 C -22.207031 38.328125 -22.511719 38.105469 -22.917969 37.921875 C -23.800781 37.488281 -24.691406 36.851562 -25.601562 36.320312 C -25.949219 36.117188 -26.160156 35.824219 -26.515625 35.605469 C -26.929688 35.320312 -27.316406 34.976562 -27.667969 34.613281 L -28.027344 34.261719 C -28.425781 33.65625 -29.058594 33.179688 -29.417969 32.59375 C -30.003906 31.691406 -30.519531 30.746094 -30.953125 29.753906 C -31.386719 28.707031 -31.542969 27.582031 -31.746094 26.527344 C -32.113281 24.628906 -32.273438 22.5 -31.980469 20.59375 C -31.8125 19.53125 -31.535156 18.480469 -31.300781 17.425781 C -31.195312 16.972656 -30.988281 16.566406 -30.886719 16.097656 C -30.742188 15.488281 -30.550781 14.882812 -30.335938 14.296875 C -30.214844 13.976562 -29.976562 13.609375 -29.886719 13.289062 L -29.945312 12.367188 C -29.953125 11.785156 -29.929688 11.207031 -29.871094 10.625 C -29.851562 10.46875 -29.902344 10.277344 -29.882812 10.121094 C -29.726562 8.914062 -29.605469 7.675781 -29.363281 6.476562 C -29.226562 5.8125 -29.035156 5.164062 -28.890625 4.503906 C -28.8125 4.25 -28.726562 3.996094 -28.613281 3.746094 C -28.265625 2.773438 -27.855469 1.832031 -27.359375 0.917969 L -26.546875 -0.332031 C -26.441406 -0.492188 -26.226562 -0.621094 -26.195312 -0.785156"/></g></g></g><g clip-path="url(#k)"><g clip-path="url(#l)"><g clip-path="url(#m)"><path fill="#5FB8A3" d="M 304.925781 110.589844 C 304.542969 111.414062 304.171875 112.160156 303.664062 112.679688 C 302.140625 114.265625 299.621094 114.882812 297.613281 115.113281 C 296.601562 115.226562 295.589844 115.199219 294.589844 115.304688 C 293.550781 115.414062 292.519531 115.617188 291.5 115.792969 C 289.984375 116.050781 288.445312 116.394531 287.09375 117.109375 C 286.699219 117.308594 286.261719 117.460938 285.878906 117.703125 C 284.9375 118.320312 284.070312 119.054688 283.304688 119.882812 C 282.808594 120.390625 282.421875 121.015625 281.949219 121.601562 C 281.753906 121.84375 281.636719 122.140625 281.441406 122.367188 C 281.148438 122.738281 280.980469 123.238281 280.703125 123.59375 L 280.585938 123.839844 C 280.300781 124.203125 280.128906 124.714844 279.832031 125.09375 L 278.441406 127.246094 C 278.214844 127.535156 278.089844 127.898438 277.871094 128.171875 C 277.65625 128.445312 277.566406 128.726562 277.359375 128.976562 C 276.664062 129.816406 276.0625 130.578125 275.269531 131.085938 C 274.972656 131.273438 274.648438 131.449219 274.339844 131.621094 C 274.242188 131.671875 274.109375 131.6875 274.003906 131.738281 C 273.730469 131.878906 273.4375 131.996094 273.144531 132.078125 C 271.6875 132.367188 270.160156 132.574219 268.53125 132.351562 C 268.304688 132.320312 268.140625 132.242188 267.898438 132.199219 C 267.109375 132.039062 265.878906 131.464844 265.296875 130.898438 C 264.800781 130.386719 264.394531 129.789062 264.097656 129.128906 C 264 128.894531 263.910156 128.652344 263.847656 128.402344 C 263.613281 127.753906 263.4375 127.082031 263.316406 126.398438 C 263.246094 126.003906 263.144531 125.585938 263.101562 125.175781 C 262.867188 123.066406 263.066406 120.785156 263.367188 118.5 C 263.511719 117.46875 263.792969 116.449219 263.980469 115.414062 C 264.160156 114.414062 264.546875 113.449219 264.761719 112.433594 C 264.832031 112.101562 264.984375 111.785156 265.050781 111.464844 L 266.296875 107.800781 C 266.382812 107.410156 266.59375 107.078125 266.691406 106.730469 L 267.226562 105.410156 C 267.300781 105.089844 267.53125 104.738281 267.609375 104.410156 L 267.792969 104.035156 C 267.867188 103.714844 268.132812 103.40625 268.214844 103.050781 C 268.328125 102.574219 268.683594 102.015625 268.914062 101.542969 C 269.050781 101.203125 269.210938 100.878906 269.40625 100.570312 C 269.535156 100.40625 269.597656 100.128906 269.707031 99.988281 C 269.90625 99.726562 269.988281 99.378906 270.160156 99.148438 C 270.332031 98.917969 270.46875 98.5 270.667969 98.257812 L 270.933594 97.75 C 271.199219 97.417969 271.386719 96.960938 271.648438 96.636719 L 271.90625 96.1875 L 272.875 94.808594 L 274.078125 93.300781 C 275.058594 92.289062 275.933594 91.253906 276.945312 90.375 C 278.472656 89.050781 280.144531 88.035156 281.679688 86.722656 C 282.855469 85.710938 283.984375 84.777344 285.269531 84.101562 C 286.097656 83.691406 286.984375 83.414062 287.898438 83.269531 C 288.234375 83.210938 288.582031 83.101562 288.921875 83.058594 C 290.113281 82.921875 291.304688 82.890625 292.5 82.960938 C 292.824219 82.980469 293.097656 83.066406 293.433594 83.105469 C 294.175781 83.210938 294.972656 83.460938 295.753906 83.628906 C 296.054688 83.695312 296.273438 83.855469 296.582031 83.933594 C 296.949219 84.042969 297.308594 84.199219 297.652344 84.378906 L 297.992188 84.550781 C 298.425781 84.898438 298.992188 85.089844 299.390625 85.433594 C 300.027344 85.953125 300.625 86.519531 301.171875 87.136719 C 301.730469 87.800781 302.109375 88.585938 302.503906 89.304688 C 303.21875 90.605469 303.835938 92.121094 304.070312 93.582031 C 304.203125 94.398438 304.25 95.234375 304.328125 96.058594 C 304.359375 96.417969 304.304688 96.761719 304.339844 97.128906 C 304.378906 97.609375 304.386719 98.097656 304.367188 98.578125 C 304.355469 98.839844 304.269531 99.164062 304.28125 99.421875 L 304.539062 100.082031 C 304.683594 100.503906 304.804688 100.933594 304.894531 101.371094 C 304.921875 101.492188 305 101.617188 305.023438 101.734375 C 305.195312 102.65625 305.402344 103.585938 305.507812 104.523438 C 305.5625 105.039062 305.582031 105.558594 305.628906 106.078125 C 305.632812 106.28125 305.628906 106.488281 305.609375 106.699219 C 305.585938 107.492188 305.511719 108.277344 305.367188 109.0625 L 305.074219 110.171875 C 305.039062 110.316406 304.910156 110.460938 304.925781 110.589844"/></g></g></g><g clip-path="url(#n)"><path fill="#FFD9CA" d="M 271.652344 66.941406 C 271.652344 77.242188 263.15625 85.597656 252.664062 85.597656 C 242.175781 85.597656 233.6875 85.597656 233.6875 66.941406 C 233.6875 56.644531 243.742188 46.769531 254.226562 46.769531 C 264.707031 46.769531 271.652344 56.644531 271.652344 66.941406 Z M 271.652344 66.941406"/></g><g clip-path="url(#o)"><path fill="#FFD9CA" d="M 130.863281 25.222656 C 130.863281 35.519531 122.367188 43.875 111.875 43.875 C 101.382812 43.875 92.898438 43.875 92.898438 25.222656 C 92.898438 14.925781 102.953125 5.046875 113.4375 5.046875 C 123.917969 5.046875 130.863281 14.925781 130.863281 25.222656 Z M 130.863281 25.222656"/></g><g fill="#99621B"><g><g><path d="M 7.4375 4.984375 C 5.019531 4.984375 3.175781 4.742188 1.90625 4.265625 C 0.632812 3.796875 0 3.003906 0 1.890625 C 0 1.097656 0.320312 0.390625 0.96875 -0.234375 C 1.613281 -0.867188 2.640625 -1.363281 4.046875 -1.71875 C 5.453125 -2.082031 7.289062 -2.265625 9.5625 -2.265625 C 9.976562 -2.265625 10.28125 -2.15625 10.46875 -1.9375 C 10.65625 -1.71875 10.75 -1.445312 10.75 -1.125 C 10.75 -0.78125 10.628906 -0.492188 10.390625 -0.265625 C 10.160156 -0.0351562 9.828125 0.078125 9.390625 0.078125 C 7.847656 0.078125 6.554688 0.15625 5.515625 0.3125 C 4.472656 0.476562 3.6875 0.675781 3.15625 0.90625 C 2.632812 1.144531 2.375 1.382812 2.375 1.625 C 2.375 1.8125 2.53125 1.976562 2.84375 2.125 C 3.164062 2.28125 3.695312 2.40625 4.4375 2.5 C 5.1875 2.59375 6.195312 2.640625 7.46875 2.640625 C 9.226562 2.640625 10.742188 2.570312 12.015625 2.4375 C 13.296875 2.3125 14.242188 2.191406 14.859375 2.078125 L 14.625 4.359375 C 14.320312 4.429688 13.910156 4.503906 13.390625 4.578125 C 12.867188 4.660156 12.28125 4.734375 11.625 4.796875 C 10.976562 4.859375 10.296875 4.90625 9.578125 4.9375 C 8.859375 4.96875 8.144531 4.984375 7.4375 4.984375 Z M 7.4375 4.984375" transform="translate(32.758 28.833)"/></g></g></g><g fill="#99621B"><g><g><path d="M 0 0.078125 L 0.171875 -2.265625 C 0.890625 -2.265625 1.394531 -2.34375 1.6875 -2.5 C 1.976562 -2.664062 2.125 -3.007812 2.125 -3.53125 C 2.125 -3.84375 2.082031 -4.21875 2 -4.65625 C 1.914062 -5.09375 1.804688 -5.539062 1.671875 -6 C 1.535156 -6.46875 1.398438 -6.898438 1.265625 -7.296875 L 3.578125 -7.9375 C 3.710938 -7.5625 3.847656 -7.117188 3.984375 -6.609375 C 4.117188 -6.109375 4.234375 -5.585938 4.328125 -5.046875 C 4.421875 -4.515625 4.46875 -4.007812 4.46875 -3.53125 C 4.46875 -2.769531 4.347656 -2.148438 4.109375 -1.671875 C 3.878906 -1.203125 3.554688 -0.835938 3.140625 -0.578125 C 2.722656 -0.328125 2.242188 -0.15625 1.703125 -0.0625 C 1.171875 0.03125 0.601562 0.078125 0 0.078125 Z M 2.328125 0.328125 L 2.90625 1.03125 C 2.539062 1.25 2.316406 1.46875 2.234375 1.6875 L 2.25 1.6875 C 2.851562 1.6875 3.15625 1.898438 3.15625 2.328125 C 3.15625 2.484375 3.082031 2.664062 2.9375 2.875 C 2.800781 3.09375 2.53125 3.203125 2.125 3.203125 C 1.832031 3.203125 1.570312 3.117188 1.34375 2.953125 C 1.113281 2.785156 1 2.515625 1 2.140625 C 1 1.816406 1.097656 1.476562 1.296875 1.125 C 1.503906 0.78125 1.847656 0.515625 2.328125 0.328125 Z M 2.328125 0.328125" transform="translate(42.488 28.833)"/></g></g></g><g fill="#99621B"><g><g><path d="M 7.4375 4.984375 C 5.019531 4.984375 3.175781 4.742188 1.90625 4.265625 C 0.632812 3.796875 0 3.003906 0 1.890625 C 0 1.097656 0.320312 0.390625 0.96875 -0.234375 C 1.613281 -0.867188 2.640625 -1.363281 4.046875 -1.71875 C 5.453125 -2.082031 7.289062 -2.265625 9.5625 -2.265625 C 9.976562 -2.265625 10.28125 -2.15625 10.46875 -1.9375 C 10.65625 -1.71875 10.75 -1.445312 10.75 -1.125 C 10.75 -0.78125 10.628906 -0.492188 10.390625 -0.265625 C 10.160156 -0.0351562 9.828125 0.078125 9.390625 0.078125 C 7.847656 0.078125 6.554688 0.15625 5.515625 0.3125 C 4.472656 0.476562 3.6875 0.675781 3.15625 0.90625 C 2.632812 1.144531 2.375 1.382812 2.375 1.625 C 2.375 1.8125 2.53125 1.976562 2.84375 2.125 C 3.164062 2.28125 3.695312 2.40625 4.4375 2.5 C 5.1875 2.59375 6.195312 2.640625 7.46875 2.640625 C 9.226562 2.640625 10.742188 2.570312 12.015625 2.4375 C 13.296875 2.3125 14.242188 2.191406 14.859375 2.078125 L 14.625 4.359375 C 14.320312 4.429688 13.910156 4.503906 13.390625 4.578125 C 12.867188 4.660156 12.28125 4.734375 11.625 4.796875 C 10.976562 4.859375 10.296875 4.90625 9.578125 4.9375 C 8.859375 4.96875 8.144531 4.984375 7.4375 4.984375 Z M 7.4375 4.984375" transform="translate(53.822 28.833)"/></g></g></g><g fill="#99621B"><g><g><path d="M 0 0.078125 L 0.171875 -2.265625 C 0.535156 -2.265625 0.832031 -2.296875 1.0625 -2.359375 C 1.300781 -2.421875 1.492188 -2.554688 1.640625 -2.765625 C 1.796875 -2.984375 1.929688 -3.3125 2.046875 -3.75 C 2.171875 -4.195312 2.304688 -4.800781 2.453125 -5.5625 L 4.625 -5.15625 C 4.582031 -4.914062 4.523438 -4.609375 4.453125 -4.234375 C 4.378906 -3.867188 4.34375 -3.550781 4.34375 -3.28125 C 4.34375 -2.96875 4.441406 -2.71875 4.640625 -2.53125 C 4.835938 -2.351562 5.21875 -2.265625 5.78125 -2.265625 C 6.0625 -2.265625 6.300781 -2.296875 6.5 -2.359375 C 6.707031 -2.421875 6.882812 -2.554688 7.03125 -2.765625 C 7.1875 -2.984375 7.320312 -3.320312 7.4375 -3.78125 C 7.5625 -4.25 7.675781 -4.878906 7.78125 -5.671875 L 10 -5.328125 C 9.9375 -4.929688 9.867188 -4.515625 9.796875 -4.078125 C 9.734375 -3.648438 9.703125 -3.320312 9.703125 -3.09375 C 9.703125 -2.882812 9.800781 -2.691406 10 -2.515625 C 10.207031 -2.347656 10.628906 -2.265625 11.265625 -2.265625 C 11.710938 -2.265625 12.066406 -2.351562 12.328125 -2.53125 C 12.597656 -2.707031 12.734375 -3.019531 12.734375 -3.46875 C 12.734375 -3.882812 12.632812 -4.425781 12.4375 -5.09375 C 12.25 -5.757812 12.03125 -6.460938 11.78125 -7.203125 L 14.140625 -7.90625 C 14.316406 -7.425781 14.472656 -6.914062 14.609375 -6.375 C 14.753906 -5.832031 14.867188 -5.300781 14.953125 -4.78125 C 15.035156 -4.269531 15.078125 -3.832031 15.078125 -3.46875 C 15.078125 -2.3125 14.738281 -1.429688 14.0625 -0.828125 C 13.382812 -0.222656 12.503906 0.078125 11.421875 0.078125 C 10.640625 0.078125 10.03125 -0.0078125 9.59375 -0.1875 C 9.15625 -0.375 8.84375 -0.707031 8.65625 -1.1875 C 8.4375 -0.800781 8.191406 -0.515625 7.921875 -0.328125 C 7.660156 -0.148438 7.351562 -0.0390625 7 0 C 6.644531 0.0507812 6.222656 0.078125 5.734375 0.078125 C 5.429688 0.078125 5.128906 0.0507812 4.828125 0 C 4.523438 -0.0390625 4.234375 -0.140625 3.953125 -0.296875 C 3.679688 -0.460938 3.445312 -0.726562 3.25 -1.09375 C 2.875 -0.570312 2.410156 -0.242188 1.859375 -0.109375 C 1.304688 0.015625 0.6875 0.078125 0 0.078125 Z M 0 0.078125" transform="translate(63.551 28.833)"/></g></g></g><g fill="#99621B"><g><g><path d="M 0.4375 -0.46875 C 0.4375 -0.84375 0.488281 -1.328125 0.59375 -1.921875 C 0.695312 -2.515625 0.9375 -3.21875 1.3125 -4.03125 L 3.359375 -3.3125 C 3.171875 -2.789062 3.023438 -2.34375 2.921875 -1.96875 C 2.828125 -1.59375 2.78125 -1.226562 2.78125 -0.875 C 2.78125 -0.0390625 3.054688 0.566406 3.609375 0.953125 C 4.160156 1.335938 4.894531 1.53125 5.8125 1.53125 C 6.5 1.53125 7.066406 1.4375 7.515625 1.25 C 7.960938 1.0625 8.304688 0.816406 8.546875 0.515625 C 8.796875 0.222656 8.972656 -0.09375 9.078125 -0.4375 C 9.179688 -0.789062 9.234375 -1.132812 9.234375 -1.46875 C 9.234375 -1.914062 9.15625 -2.457031 9 -3.09375 C 8.84375 -3.726562 8.5625 -4.445312 8.15625 -5.25 L 10.3125 -6.15625 C 10.539062 -5.769531 10.75 -5.316406 10.9375 -4.796875 C 11.125 -4.273438 11.273438 -3.734375 11.390625 -3.171875 C 11.515625 -2.617188 11.578125 -2.09375 11.578125 -1.59375 C 11.578125 -1.144531 11.519531 -0.671875 11.40625 -0.171875 C 11.289062 0.316406 11.101562 0.800781 10.84375 1.28125 C 10.582031 1.769531 10.226562 2.207031 9.78125 2.59375 C 9.332031 2.976562 8.78125 3.285156 8.125 3.515625 C 7.46875 3.753906 6.679688 3.875 5.765625 3.875 C 4.773438 3.875 3.878906 3.726562 3.078125 3.4375 C 2.273438 3.144531 1.632812 2.675781 1.15625 2.03125 C 0.675781 1.394531 0.4375 0.5625 0.4375 -0.46875 Z M 0.4375 -0.46875" transform="translate(85.486 28.833)"/></g></g></g><g fill="#99621B"><g><g><path d="M 0.953125 3.859375 L 0.46875 1.5 C 1.46875 1.382812 2.3125 1.226562 3 1.03125 C 3.6875 0.832031 4.222656 0.515625 4.609375 0.078125 L 4.15625 0.078125 C 3.101562 0.078125 2.273438 -0.113281 1.671875 -0.5 C 1.078125 -0.882812 0.78125 -1.546875 0.78125 -2.484375 C 0.78125 -2.984375 0.867188 -3.484375 1.046875 -3.984375 C 1.222656 -4.484375 1.46875 -4.941406 1.78125 -5.359375 C 2.09375 -5.785156 2.457031 -6.125 2.875 -6.375 C 3.289062 -6.625 3.742188 -6.75 4.234375 -6.75 C 4.890625 -6.75 5.472656 -6.539062 5.984375 -6.125 C 6.492188 -5.71875 6.890625 -5.171875 7.171875 -4.484375 C 7.460938 -3.804688 7.609375 -3.066406 7.609375 -2.265625 L 8.921875 -2.265625 C 9.335938 -2.265625 9.640625 -2.15625 9.828125 -1.9375 C 10.015625 -1.71875 10.109375 -1.445312 10.109375 -1.125 C 10.109375 -0.78125 9.988281 -0.492188 9.75 -0.265625 C 9.519531 -0.0351562 9.191406 0.078125 8.765625 0.078125 L 7.21875 0.078125 C 6.78125 1.242188 6.019531 2.140625 4.9375 2.765625 C 3.863281 3.398438 2.535156 3.765625 0.953125 3.859375 Z M 3.09375 -2.875 C 3.09375 -2.757812 3.132812 -2.632812 3.21875 -2.5 C 3.300781 -2.375 3.492188 -2.273438 3.796875 -2.203125 C 4.097656 -2.128906 4.582031 -2.117188 5.25 -2.171875 C 5.226562 -2.828125 5.117188 -3.335938 4.921875 -3.703125 C 4.722656 -4.078125 4.460938 -4.265625 4.140625 -4.265625 C 3.898438 -4.265625 3.703125 -4.179688 3.546875 -4.015625 C 3.390625 -3.859375 3.273438 -3.671875 3.203125 -3.453125 C 3.128906 -3.234375 3.09375 -3.039062 3.09375 -2.875 Z M 3.09375 -2.875" transform="translate(98.23 28.833)"/></g></g></g><g fill="#99621B"><g><g><path d="M 0 0.078125 L 0.171875 -2.265625 C 0.890625 -2.265625 1.394531 -2.34375 1.6875 -2.5 C 1.976562 -2.664062 2.125 -3.007812 2.125 -3.53125 C 2.125 -3.84375 2.082031 -4.21875 2 -4.65625 C 1.914062 -5.09375 1.804688 -5.539062 1.671875 -6 C 1.535156 -6.46875 1.398438 -6.898438 1.265625 -7.296875 L 3.578125 -7.9375 C 3.710938 -7.5625 3.847656 -7.117188 3.984375 -6.609375 C 4.117188 -6.109375 4.234375 -5.585938 4.328125 -5.046875 C 4.421875 -4.515625 4.46875 -4.007812 4.46875 -3.53125 C 4.46875 -2.769531 4.347656 -2.148438 4.109375 -1.671875 C 3.878906 -1.203125 3.554688 -0.835938 3.140625 -0.578125 C 2.722656 -0.328125 2.242188 -0.15625 1.703125 -0.0625 C 1.171875 0.03125 0.601562 0.078125 0 0.078125 Z M 2.671875 -9.109375 C 2.328125 -9.109375 2.035156 -9.222656 1.796875 -9.453125 C 1.554688 -9.691406 1.4375 -9.984375 1.4375 -10.328125 C 1.4375 -10.679688 1.554688 -10.976562 1.796875 -11.21875 C 2.035156 -11.46875 2.328125 -11.59375 2.671875 -11.59375 C 3.003906 -11.59375 3.289062 -11.46875 3.53125 -11.21875 C 3.769531 -10.976562 3.890625 -10.679688 3.890625 -10.328125 C 3.890625 -9.984375 3.769531 -9.691406 3.53125 -9.453125 C 3.289062 -9.222656 3.003906 -9.109375 2.671875 -9.109375 Z M 2.671875 -9.109375" transform="translate(107.34 28.833)"/></g></g></g><g fill="#99621B"><g><g><path d="M 1.34375 0 L 0.984375 -12.265625 L 3.328125 -12.265625 L 3.6875 0 Z M 1.34375 0" transform="translate(112.983 28.833)"/></g></g></g><g fill="#99621B"><g><g><path d="M 0.953125 3.859375 L 0.46875 1.5 C 1.46875 1.382812 2.3125 1.226562 3 1.03125 C 3.6875 0.832031 4.222656 0.515625 4.609375 0.078125 L 4.15625 0.078125 C 3.101562 0.078125 2.273438 -0.113281 1.671875 -0.5 C 1.078125 -0.882812 0.78125 -1.546875 0.78125 -2.484375 C 0.78125 -2.984375 0.867188 -3.484375 1.046875 -3.984375 C 1.222656 -4.484375 1.46875 -4.941406 1.78125 -5.359375 C 2.09375 -5.785156 2.457031 -6.125 2.875 -6.375 C 3.289062 -6.625 3.742188 -6.75 4.234375 -6.75 C 4.890625 -6.75 5.472656 -6.539062 5.984375 -6.125 C 6.492188 -5.71875 6.890625 -5.171875 7.171875 -4.484375 C 7.460938 -3.804688 7.609375 -3.066406 7.609375 -2.265625 L 8.921875 -2.265625 C 9.335938 -2.265625 9.640625 -2.15625 9.828125 -1.9375 C 10.015625 -1.71875 10.109375 -1.445312 10.109375 -1.125 C 10.109375 -0.78125 9.988281 -0.492188 9.75 -0.265625 C 9.519531 -0.0351562 9.191406 0.078125 8.765625 0.078125 L 7.21875 0.078125 C 6.78125 1.242188 6.019531 2.140625 4.9375 2.765625 C 3.863281 3.398438 2.535156 3.765625 0.953125 3.859375 Z M 3.09375 -2.875 C 3.09375 -2.757812 3.132812 -2.632812 3.21875 -2.5 C 3.300781 -2.375 3.492188 -2.273438 3.796875 -2.203125 C 4.097656 -2.128906 4.582031 -2.117188 5.25 -2.171875 C 5.226562 -2.828125 5.117188 -3.335938 4.921875 -3.703125 C 4.722656 -4.078125 4.460938 -4.265625 4.140625 -4.265625 C 3.898438 -4.265625 3.703125 -4.179688 3.546875 -4.015625 C 3.390625 -3.859375 3.273438 -3.671875 3.203125 -3.453125 C 3.128906 -3.234375 3.09375 -3.039062 3.09375 -2.875 Z M 3.09375 -2.875" transform="translate(117.89 28.833)"/></g></g></g><g fill="#99621B"><g><g><path d="M 0 0.078125 L 0.171875 -2.265625 C 1.367188 -2.265625 2.535156 -2.394531 3.671875 -2.65625 C 4.816406 -2.925781 5.832031 -3.359375 6.71875 -3.953125 C 6.207031 -4.253906 5.640625 -4.488281 5.015625 -4.65625 C 4.398438 -4.820312 3.722656 -4.90625 2.984375 -4.90625 C 2.703125 -4.90625 2.410156 -4.890625 2.109375 -4.859375 C 1.816406 -4.835938 1.519531 -4.789062 1.21875 -4.71875 L 0.890625 -7.015625 C 1.210938 -7.097656 1.550781 -7.160156 1.90625 -7.203125 C 2.269531 -7.242188 2.59375 -7.265625 2.875 -7.265625 C 3.632812 -7.265625 4.316406 -7.164062 4.921875 -6.96875 C 5.523438 -6.769531 6.070312 -6.535156 6.5625 -6.265625 C 7.0625 -5.992188 7.523438 -5.757812 7.953125 -5.5625 C 8.390625 -5.363281 8.816406 -5.265625 9.234375 -5.265625 L 9.84375 -5.265625 L 10.109375 -3.03125 C 9.617188 -3 9.164062 -2.90625 8.75 -2.75 C 8.34375 -2.59375 7.9375 -2.394531 7.53125 -2.15625 C 7.125 -1.914062 6.6875 -1.664062 6.21875 -1.40625 C 5.757812 -1.144531 5.238281 -0.90625 4.65625 -0.6875 C 4.070312 -0.46875 3.398438 -0.285156 2.640625 -0.140625 C 1.878906 0.00390625 1 0.078125 0 0.078125 Z M 4.609375 3.90625 C 4.285156 3.90625 4.007812 3.789062 3.78125 3.5625 C 3.550781 3.34375 3.4375 3.070312 3.4375 2.75 C 3.4375 2.425781 3.550781 2.144531 3.78125 1.90625 C 4.007812 1.664062 4.285156 1.546875 4.609375 1.546875 C 4.921875 1.546875 5.191406 1.664062 5.421875 1.90625 C 5.660156 2.144531 5.78125 2.425781 5.78125 2.75 C 5.78125 3.070312 5.660156 3.34375 5.421875 3.5625 C 5.191406 3.789062 4.921875 3.90625 4.609375 3.90625 Z M 4.609375 3.90625" transform="translate(127 28.833)"/></g></g></g><g fill="#99621B"><g><g><path d="M 0.4375 -0.46875 C 0.4375 -0.84375 0.488281 -1.328125 0.59375 -1.921875 C 0.695312 -2.515625 0.9375 -3.21875 1.3125 -4.03125 L 3.359375 -3.3125 C 3.171875 -2.789062 3.023438 -2.34375 2.921875 -1.96875 C 2.828125 -1.59375 2.78125 -1.226562 2.78125 -0.875 C 2.78125 -0.0390625 3.054688 0.566406 3.609375 0.953125 C 4.160156 1.335938 4.894531 1.53125 5.8125 1.53125 C 6.5 1.53125 7.066406 1.4375 7.515625 1.25 C 7.960938 1.0625 8.304688 0.816406 8.546875 0.515625 C 8.796875 0.222656 8.972656 -0.09375 9.078125 -0.4375 C 9.179688 -0.789062 9.234375 -1.132812 9.234375 -1.46875 C 9.234375 -1.914062 9.15625 -2.457031 9 -3.09375 C 8.84375 -3.726562 8.5625 -4.445312 8.15625 -5.25 L 10.3125 -6.15625 C 10.539062 -5.769531 10.75 -5.316406 10.9375 -4.796875 C 11.125 -4.273438 11.273438 -3.734375 11.390625 -3.171875 C 11.515625 -2.617188 11.578125 -2.09375 11.578125 -1.59375 C 11.578125 -1.144531 11.519531 -0.671875 11.40625 -0.171875 C 11.289062 0.316406 11.101562 0.800781 10.84375 1.28125 C 10.582031 1.769531 10.226562 2.207031 9.78125 2.59375 C 9.332031 2.976562 8.78125 3.285156 8.125 3.515625 C 7.46875 3.753906 6.679688 3.875 5.765625 3.875 C 4.773438 3.875 3.878906 3.726562 3.078125 3.4375 C 2.273438 3.144531 1.632812 2.675781 1.15625 2.03125 C 0.675781 1.394531 0.4375 0.5625 0.4375 -0.46875 Z M 5.671875 -7.109375 C 5.328125 -7.109375 5.035156 -7.222656 4.796875 -7.453125 C 4.554688 -7.691406 4.4375 -7.984375 4.4375 -8.328125 C 4.4375 -8.679688 4.554688 -8.976562 4.796875 -9.21875 C 5.035156 -9.46875 5.328125 -9.59375 5.671875 -9.59375 C 6.003906 -9.59375 6.289062 -9.46875 6.53125 -9.21875 C 6.769531 -8.976562 6.890625 -8.679688 6.890625 -8.328125 C 6.890625 -7.984375 6.769531 -7.691406 6.53125 -7.453125 C 6.289062 -7.222656 6.003906 -7.109375 5.671875 -7.109375 Z M 5.671875 -7.109375" transform="translate(143.558 28.833)"/></g></g></g><g fill="#99621B"><g><g><path d="M 1.34375 0 L 0.984375 -12.265625 L 3.328125 -12.265625 L 3.6875 0 Z M 1.34375 0" transform="translate(156.302 28.833)"/></g></g></g><g fill="#99621B"><g><g><path d="M 7.4375 4.984375 C 5.019531 4.984375 3.175781 4.742188 1.90625 4.265625 C 0.632812 3.796875 0 3.003906 0 1.890625 C 0 1.097656 0.320312 0.390625 0.96875 -0.234375 C 1.613281 -0.867188 2.640625 -1.363281 4.046875 -1.71875 C 5.453125 -2.082031 7.289062 -2.265625 9.5625 -2.265625 C 9.976562 -2.265625 10.28125 -2.15625 10.46875 -1.9375 C 10.65625 -1.71875 10.75 -1.445312 10.75 -1.125 C 10.75 -0.78125 10.628906 -0.492188 10.390625 -0.265625 C 10.160156 -0.0351562 9.828125 0.078125 9.390625 0.078125 C 7.847656 0.078125 6.554688 0.15625 5.515625 0.3125 C 4.472656 0.476562 3.6875 0.675781 3.15625 0.90625 C 2.632812 1.144531 2.375 1.382812 2.375 1.625 C 2.375 1.8125 2.53125 1.976562 2.84375 2.125 C 3.164062 2.28125 3.695312 2.40625 4.4375 2.5 C 5.1875 2.59375 6.195312 2.640625 7.46875 2.640625 C 9.226562 2.640625 10.742188 2.570312 12.015625 2.4375 C 13.296875 2.3125 14.242188 2.191406 14.859375 2.078125 L 14.625 4.359375 C 14.320312 4.429688 13.910156 4.503906 13.390625 4.578125 C 12.867188 4.660156 12.28125 4.734375 11.625 4.796875 C 10.976562 4.859375 10.296875 4.90625 9.578125 4.9375 C 8.859375 4.96875 8.144531 4.984375 7.4375 4.984375 Z M 7.4375 4.984375" transform="translate(166.9 28.833)"/></g></g></g><g fill="#99621B"><g><g><path d="M 0 0.078125 L 0.171875 -2.265625 L 1.265625 -2.265625 C 1.378906 -3.398438 1.644531 -4.394531 2.0625 -5.25 C 2.488281 -6.113281 3.003906 -6.785156 3.609375 -7.265625 C 4.210938 -7.753906 4.859375 -8 5.546875 -8 C 5.953125 -8 6.347656 -7.878906 6.734375 -7.640625 C 7.117188 -7.398438 7.4375 -7.050781 7.6875 -6.59375 C 7.9375 -6.132812 8.0625 -5.578125 8.0625 -4.921875 C 8.0625 -4.578125 7.988281 -4.179688 7.84375 -3.734375 C 7.707031 -3.296875 7.46875 -2.890625 7.125 -2.515625 C 7.53125 -2.421875 7.953125 -2.351562 8.390625 -2.3125 C 8.835938 -2.28125 9.28125 -2.265625 9.71875 -2.265625 C 10.132812 -2.265625 10.4375 -2.15625 10.625 -1.9375 C 10.8125 -1.71875 10.90625 -1.445312 10.90625 -1.125 C 10.90625 -0.78125 10.785156 -0.492188 10.546875 -0.265625 C 10.316406 -0.0351562 9.984375 0.078125 9.546875 0.078125 C 9.273438 0.078125 8.972656 0.0664062 8.640625 0.046875 C 8.785156 0.441406 8.835938 0.847656 8.796875 1.265625 C 8.765625 1.691406 8.625 2.085938 8.375 2.453125 C 8.132812 2.816406 7.785156 3.113281 7.328125 3.34375 C 6.878906 3.570312 6.3125 3.6875 5.625 3.6875 C 4.925781 3.6875 4.273438 3.550781 3.671875 3.28125 C 3.066406 3.019531 2.554688 2.613281 2.140625 2.0625 C 1.734375 1.519531 1.457031 0.828125 1.3125 -0.015625 C 0.789062 0.046875 0.351562 0.078125 0 0.078125 Z M 5.328125 -5.6875 C 5.128906 -5.6875 4.910156 -5.550781 4.671875 -5.28125 C 4.429688 -5.007812 4.210938 -4.617188 4.015625 -4.109375 C 3.816406 -3.609375 3.6875 -3.023438 3.625 -2.359375 C 4.3125 -2.472656 4.84375 -2.707031 5.21875 -3.0625 C 5.59375 -3.414062 5.78125 -3.914062 5.78125 -4.5625 C 5.78125 -4.820312 5.742188 -5.070312 5.671875 -5.3125 C 5.597656 -5.5625 5.484375 -5.6875 5.328125 -5.6875 Z M 5.5625 1.375 C 5.894531 1.375 6.140625 1.296875 6.296875 1.140625 C 6.460938 0.984375 6.546875 0.78125 6.546875 0.53125 C 6.546875 0.394531 6.5 0.242188 6.40625 0.078125 C 6.320312 -0.0859375 6.15625 -0.234375 5.90625 -0.359375 C 5.664062 -0.484375 5.316406 -0.546875 4.859375 -0.546875 C 4.691406 -0.546875 4.503906 -0.535156 4.296875 -0.515625 C 4.097656 -0.492188 3.890625 -0.460938 3.671875 -0.421875 C 3.804688 0.253906 4.050781 0.722656 4.40625 0.984375 C 4.769531 1.242188 5.15625 1.375 5.5625 1.375 Z M 5.5625 1.375" transform="translate(176.629 28.833)"/></g></g></g><g fill="#99621B"><g><g><path d="M 0 0.078125 L 0.171875 -2.265625 C 1.367188 -2.265625 2.535156 -2.394531 3.671875 -2.65625 C 4.816406 -2.925781 5.832031 -3.359375 6.71875 -3.953125 C 6.207031 -4.253906 5.640625 -4.488281 5.015625 -4.65625 C 4.398438 -4.820312 3.722656 -4.90625 2.984375 -4.90625 C 2.703125 -4.90625 2.410156 -4.890625 2.109375 -4.859375 C 1.816406 -4.835938 1.519531 -4.789062 1.21875 -4.71875 L 0.890625 -7.015625 C 1.210938 -7.097656 1.550781 -7.160156 1.90625 -7.203125 C 2.269531 -7.242188 2.59375 -7.265625 2.875 -7.265625 C 3.632812 -7.265625 4.316406 -7.164062 4.921875 -6.96875 C 5.523438 -6.769531 6.070312 -6.535156 6.5625 -6.265625 C 7.0625 -5.992188 7.523438 -5.757812 7.953125 -5.5625 C 8.390625 -5.363281 8.816406 -5.265625 9.234375 -5.265625 L 9.84375 -5.265625 L 10.109375 -3.03125 C 9.867188 -3.019531 9.632812 -2.984375 9.40625 -2.921875 C 9.1875 -2.867188 8.972656 -2.804688 8.765625 -2.734375 C 9.035156 -2.554688 9.363281 -2.429688 9.75 -2.359375 C 10.144531 -2.296875 10.601562 -2.265625 11.125 -2.265625 C 11.550781 -2.265625 11.851562 -2.15625 12.03125 -1.9375 C 12.207031 -1.71875 12.296875 -1.445312 12.296875 -1.125 C 12.296875 -0.78125 12.179688 -0.492188 11.953125 -0.265625 C 11.722656 -0.0351562 11.390625 0.078125 10.953125 0.078125 C 10.054688 0.078125 9.269531 -0.046875 8.59375 -0.296875 C 7.914062 -0.554688 7.367188 -1.0625 6.953125 -1.8125 C 6.441406 -1.519531 5.875 -1.226562 5.25 -0.9375 C 4.632812 -0.644531 3.898438 -0.398438 3.046875 -0.203125 C 2.203125 -0.015625 1.1875 0.078125 0 0.078125 Z M 4.609375 3.90625 C 4.285156 3.90625 4.007812 3.789062 3.78125 3.5625 C 3.550781 3.34375 3.4375 3.070312 3.4375 2.75 C 3.4375 2.425781 3.550781 2.144531 3.78125 1.90625 C 4.007812 1.664062 4.285156 1.546875 4.609375 1.546875 C 4.921875 1.546875 5.191406 1.664062 5.421875 1.90625 C 5.660156 2.144531 5.78125 2.425781 5.78125 2.75 C 5.78125 3.070312 5.660156 3.34375 5.421875 3.5625 C 5.191406 3.789062 4.921875 3.90625 4.609375 3.90625 Z M 4.609375 3.90625" transform="translate(186.525 28.833)"/></g></g></g><g fill="#99621B"><g><g><path d="M 0 0.078125 L 0.171875 -2.265625 C 0.410156 -2.265625 0.625 -2.328125 0.8125 -2.453125 C 1.007812 -2.578125 1.207031 -2.789062 1.40625 -3.09375 C 1.601562 -3.394531 1.835938 -3.816406 2.109375 -4.359375 C 2.609375 -5.359375 3.140625 -6.046875 3.703125 -6.421875 C 4.273438 -6.796875 4.851562 -6.984375 5.4375 -6.984375 C 6.101562 -6.984375 6.695312 -6.796875 7.21875 -6.421875 C 7.738281 -6.054688 8.148438 -5.582031 8.453125 -5 C 8.753906 -4.414062 8.90625 -3.789062 8.90625 -3.125 C 8.90625 -2.539062 8.78125 -2.007812 8.53125 -1.53125 C 8.28125 -1.0625 7.929688 -0.6875 7.484375 -0.40625 C 7.046875 -0.132812 6.546875 0 5.984375 0 C 5.554688 0 5.066406 -0.0625 4.515625 -0.1875 C 3.972656 -0.3125 3.398438 -0.566406 2.796875 -0.953125 C 2.453125 -0.566406 2.066406 -0.296875 1.640625 -0.140625 C 1.210938 0.00390625 0.664062 0.078125 0 0.078125 Z M 5.375 -4.640625 C 5.050781 -4.640625 4.796875 -4.476562 4.609375 -4.15625 C 4.421875 -3.832031 4.195312 -3.398438 3.9375 -2.859375 C 4.28125 -2.679688 4.597656 -2.550781 4.890625 -2.46875 C 5.191406 -2.382812 5.445312 -2.34375 5.65625 -2.34375 C 5.988281 -2.34375 6.234375 -2.390625 6.390625 -2.484375 C 6.554688 -2.585938 6.640625 -2.769531 6.640625 -3.03125 C 6.640625 -3.269531 6.582031 -3.507812 6.46875 -3.75 C 6.351562 -4 6.203125 -4.207031 6.015625 -4.375 C 5.828125 -4.550781 5.613281 -4.640625 5.375 -4.640625 Z M 5.375 -4.640625" transform="translate(197.812 28.833)"/></g></g></g><g fill="#99621B"><g><g><path d="M 7.109375 0.359375 C 5.492188 0.359375 4.207031 0.195312 3.25 -0.125 C 2.289062 -0.457031 1.597656 -0.90625 1.171875 -1.46875 C 0.742188 -2.039062 0.53125 -2.691406 0.53125 -3.421875 C 0.53125 -3.941406 0.597656 -4.476562 0.734375 -5.03125 C 0.867188 -5.582031 1 -6.070312 1.125 -6.5 L 3.21875 -6.015625 C 3.132812 -5.703125 3.054688 -5.367188 2.984375 -5.015625 C 2.910156 -4.660156 2.875 -4.351562 2.875 -4.09375 C 2.875 -3.664062 3.019531 -3.296875 3.3125 -2.984375 C 3.613281 -2.671875 4.101562 -2.425781 4.78125 -2.25 C 5.46875 -2.082031 6.382812 -2 7.53125 -2 L 7.53125 -1.9375 L 7.546875 -2 C 8.359375 -2 9.132812 -2.035156 9.875 -2.109375 C 10.613281 -2.191406 11.320312 -2.347656 12 -2.578125 C 12.675781 -2.816406 13.304688 -3.164062 13.890625 -3.625 C 14.484375 -4.082031 15.023438 -4.691406 15.515625 -5.453125 L 17.390625 -4.609375 C 17.316406 -4.390625 17.257812 -4.179688 17.21875 -3.984375 C 17.175781 -3.785156 17.15625 -3.628906 17.15625 -3.515625 C 17.15625 -3.128906 17.304688 -2.820312 17.609375 -2.59375 C 17.910156 -2.375 18.472656 -2.265625 19.296875 -2.265625 C 19.722656 -2.265625 20.023438 -2.15625 20.203125 -1.9375 C 20.378906 -1.71875 20.46875 -1.445312 20.46875 -1.125 C 20.46875 -0.78125 20.351562 -0.492188 20.125 -0.265625 C 19.894531 -0.0351562 19.5625 0.078125 19.125 0.078125 C 18.125 0.078125 17.300781 -0.09375 16.65625 -0.4375 C 16.007812 -0.789062 15.582031 -1.257812 15.375 -1.84375 C 14.519531 -1.082031 13.375 -0.523438 11.9375 -0.171875 C 10.5 0.179688 8.894531 0.359375 7.125 0.359375 L 7.125 0.328125 Z M 7.640625 -7.09375 C 7.316406 -7.09375 7.039062 -7.207031 6.8125 -7.4375 C 6.582031 -7.664062 6.46875 -7.9375 6.46875 -8.25 C 6.46875 -8.570312 6.582031 -8.847656 6.8125 -9.078125 C 7.039062 -9.316406 7.316406 -9.4375 7.640625 -9.4375 C 7.953125 -9.4375 8.21875 -9.316406 8.4375 -9.078125 C 8.664062 -8.847656 8.78125 -8.570312 8.78125 -8.25 C 8.78125 -7.9375 8.664062 -7.664062 8.4375 -7.4375 C 8.21875 -7.207031 7.953125 -7.09375 7.640625 -7.09375 Z M 10.546875 -7.078125 C 10.210938 -7.078125 9.929688 -7.1875 9.703125 -7.40625 C 9.472656 -7.632812 9.359375 -7.910156 9.359375 -8.234375 C 9.359375 -8.554688 9.472656 -8.832031 9.703125 -9.0625 C 9.929688 -9.300781 10.210938 -9.421875 10.546875 -9.421875 C 10.859375 -9.421875 11.125 -9.300781 11.34375 -9.0625 C 11.5625 -8.832031 11.671875 -8.554688 11.671875 -8.234375 C 11.671875 -7.910156 11.5625 -7.632812 11.34375 -7.40625 C 11.125 -7.1875 10.859375 -7.078125 10.546875 -7.078125 Z M 10.546875 -7.078125" transform="translate(213.584 28.833)"/></g></g></g><g fill="#99621B"><g><g><path d="M 0 0.078125 L 0.171875 -2.265625 C 0.585938 -2.265625 0.921875 -2.300781 1.171875 -2.375 C 1.429688 -2.457031 1.632812 -2.617188 1.78125 -2.859375 C 1.9375 -3.097656 2.066406 -3.453125 2.171875 -3.921875 C 2.273438 -4.390625 2.382812 -5.015625 2.5 -5.796875 L 4.6875 -5.421875 C 4.644531 -5.171875 4.59375 -4.863281 4.53125 -4.5 C 4.476562 -4.144531 4.453125 -3.816406 4.453125 -3.515625 C 4.453125 -3.242188 4.507812 -3.015625 4.625 -2.828125 C 4.75 -2.640625 4.960938 -2.5 5.265625 -2.40625 C 5.578125 -2.3125 6.019531 -2.265625 6.59375 -2.265625 C 7.019531 -2.265625 7.320312 -2.15625 7.5 -1.9375 C 7.675781 -1.71875 7.765625 -1.445312 7.765625 -1.125 C 7.765625 -0.78125 7.648438 -0.492188 7.421875 -0.265625 C 7.191406 -0.0351562 6.863281 0.078125 6.4375 0.078125 C 5.539062 0.078125 4.84375 -0.015625 4.34375 -0.203125 C 3.84375 -0.390625 3.488281 -0.726562 3.28125 -1.21875 C 2.863281 -0.644531 2.375 -0.285156 1.8125 -0.140625 C 1.25 0.00390625 0.644531 0.078125 0 0.078125 Z M 2.609375 3.90625 C 2.285156 3.90625 2.007812 3.789062 1.78125 3.5625 C 1.550781 3.34375 1.4375 3.070312 1.4375 2.75 C 1.4375 2.425781 1.550781 2.144531 1.78125 1.90625 C 2.007812 1.664062 2.285156 1.546875 2.609375 1.546875 C 2.921875 1.546875 3.191406 1.664062 3.421875 1.90625 C 3.660156 2.144531 3.78125 2.425781 3.78125 2.75 C 3.78125 3.070312 3.660156 3.34375 3.421875 3.5625 C 3.191406 3.789062 2.921875 3.90625 2.609375 3.90625 Z M 2.609375 3.90625" transform="translate(233.043 28.833)"/></g></g></g><g fill="#99621B"><g><g><path d="M 0 0.078125 L 0.171875 -2.265625 C 1.367188 -2.265625 2.535156 -2.394531 3.671875 -2.65625 C 4.816406 -2.925781 5.832031 -3.359375 6.71875 -3.953125 C 6.207031 -4.253906 5.640625 -4.488281 5.015625 -4.65625 C 4.398438 -4.820312 3.722656 -4.90625 2.984375 -4.90625 C 2.703125 -4.90625 2.410156 -4.890625 2.109375 -4.859375 C 1.816406 -4.835938 1.519531 -4.789062 1.21875 -4.71875 L 0.890625 -7.015625 C 1.210938 -7.097656 1.550781 -7.160156 1.90625 -7.203125 C 2.269531 -7.242188 2.59375 -7.265625 2.875 -7.265625 C 3.632812 -7.265625 4.316406 -7.164062 4.921875 -6.96875 C 5.523438 -6.769531 6.070312 -6.535156 6.5625 -6.265625 C 7.0625 -5.992188 7.523438 -5.757812 7.953125 -5.5625 C 8.390625 -5.363281 8.816406 -5.265625 9.234375 -5.265625 L 9.84375 -5.265625 L 10.109375 -3.03125 C 9.867188 -3.019531 9.632812 -2.984375 9.40625 -2.921875 C 9.1875 -2.867188 8.972656 -2.804688 8.765625 -2.734375 C 9.035156 -2.554688 9.363281 -2.429688 9.75 -2.359375 C 10.144531 -2.296875 10.601562 -2.265625 11.125 -2.265625 C 11.550781 -2.265625 11.851562 -2.15625 12.03125 -1.9375 C 12.207031 -1.71875 12.296875 -1.445312 12.296875 -1.125 C 12.296875 -0.78125 12.179688 -0.492188 11.953125 -0.265625 C 11.722656 -0.0351562 11.390625 0.078125 10.953125 0.078125 C 10.054688 0.078125 9.269531 -0.046875 8.59375 -0.296875 C 7.914062 -0.554688 7.367188 -1.0625 6.953125 -1.8125 C 6.441406 -1.519531 5.875 -1.226562 5.25 -0.9375 C 4.632812 -0.644531 3.898438 -0.398438 3.046875 -0.203125 C 2.203125 -0.015625 1.1875 0.078125 0 0.078125 Z M 0 0.078125" transform="translate(239.808 28.833)"/></g></g></g><g fill="#99621B"><g><g><path d="M 0 0.078125 L 0.171875 -2.265625 C 0.410156 -2.265625 0.625 -2.328125 0.8125 -2.453125 C 1.007812 -2.578125 1.207031 -2.789062 1.40625 -3.09375 C 1.601562 -3.394531 1.835938 -3.816406 2.109375 -4.359375 C 2.609375 -5.359375 3.140625 -6.046875 3.703125 -6.421875 C 4.273438 -6.796875 4.851562 -6.984375 5.4375 -6.984375 C 6.101562 -6.984375 6.695312 -6.796875 7.21875 -6.421875 C 7.738281 -6.054688 8.148438 -5.582031 8.453125 -5 C 8.753906 -4.414062 8.90625 -3.789062 8.90625 -3.125 C 8.90625 -2.539062 8.78125 -2.007812 8.53125 -1.53125 C 8.28125 -1.0625 7.929688 -0.6875 7.484375 -0.40625 C 7.046875 -0.132812 6.546875 0 5.984375 0 C 5.554688 0 5.066406 -0.0625 4.515625 -0.1875 C 3.972656 -0.3125 3.398438 -0.566406 2.796875 -0.953125 C 2.453125 -0.566406 2.066406 -0.296875 1.640625 -0.140625 C 1.210938 0.00390625 0.664062 0.078125 0 0.078125 Z M 5.375 -4.640625 C 5.050781 -4.640625 4.796875 -4.476562 4.609375 -4.15625 C 4.421875 -3.832031 4.195312 -3.398438 3.9375 -2.859375 C 4.28125 -2.679688 4.597656 -2.550781 4.890625 -2.46875 C 5.191406 -2.382812 5.445312 -2.34375 5.65625 -2.34375 C 5.988281 -2.34375 6.234375 -2.390625 6.390625 -2.484375 C 6.554688 -2.585938 6.640625 -2.769531 6.640625 -3.03125 C 6.640625 -3.269531 6.582031 -3.507812 6.46875 -3.75 C 6.351562 -4 6.203125 -4.207031 6.015625 -4.375 C 5.828125 -4.550781 5.613281 -4.640625 5.375 -4.640625 Z M 5.375 -4.640625" transform="translate(251.095 28.833)"/></g></g></g><g fill="#99621B"><g><g><path d="M 3.65625 -2.265625 C 4.40625 -2.265625 4.898438 -2.359375 5.140625 -2.546875 C 5.390625 -2.742188 5.515625 -2.96875 5.515625 -3.21875 C 5.515625 -3.488281 5.4375 -3.800781 5.28125 -4.15625 C 5.132812 -4.507812 4.945312 -4.878906 4.71875 -5.265625 C 4.5 -5.660156 4.265625 -6.035156 4.015625 -6.390625 C 3.773438 -6.753906 3.566406 -7.070312 3.390625 -7.34375 L 5.375 -8.65625 C 6.101562 -7.6875 6.675781 -6.742188 7.09375 -5.828125 C 7.507812 -4.921875 7.785156 -4.1875 7.921875 -3.625 C 8.046875 -3.082031 8.28125 -2.71875 8.625 -2.53125 C 8.96875 -2.351562 9.332031 -2.265625 9.71875 -2.265625 C 10.132812 -2.265625 10.4375 -2.15625 10.625 -1.9375 C 10.8125 -1.71875 10.90625 -1.445312 10.90625 -1.125 C 10.90625 -0.78125 10.789062 -0.492188 10.5625 -0.265625 C 10.332031 -0.0351562 9.992188 0.078125 9.546875 0.078125 C 8.492188 0.078125 7.710938 -0.242188 7.203125 -0.890625 C 6.898438 -0.597656 6.472656 -0.359375 5.921875 -0.171875 C 5.378906 0.00390625 4.734375 0.09375 3.984375 0.09375 C 3.472656 0.09375 2.898438 0.0351562 2.265625 -0.078125 C 1.628906 -0.203125 1.070312 -0.398438 0.59375 -0.671875 L 1.40625 -2.796875 C 1.820312 -2.609375 2.222656 -2.472656 2.609375 -2.390625 C 2.992188 -2.304688 3.34375 -2.265625 3.65625 -2.265625 Z M 3.65625 -2.265625" transform="translate(33.74 68.528)"/></g></g></g><g fill="#99621B"><g><g><path d="M 0 0.078125 L 0.171875 -2.265625 C 0.585938 -2.265625 0.921875 -2.300781 1.171875 -2.375 C 1.429688 -2.457031 1.632812 -2.617188 1.78125 -2.859375 C 1.9375 -3.097656 2.066406 -3.453125 2.171875 -3.921875 C 2.273438 -4.390625 2.382812 -5.015625 2.5 -5.796875 L 4.6875 -5.421875 C 4.644531 -5.171875 4.59375 -4.863281 4.53125 -4.5 C 4.476562 -4.144531 4.453125 -3.816406 4.453125 -3.515625 C 4.453125 -3.242188 4.507812 -3.015625 4.625 -2.828125 C 4.75 -2.640625 4.960938 -2.5 5.265625 -2.40625 C 5.578125 -2.3125 6.019531 -2.265625 6.59375 -2.265625 C 7.019531 -2.265625 7.320312 -2.15625 7.5 -1.9375 C 7.675781 -1.71875 7.765625 -1.445312 7.765625 -1.125 C 7.765625 -0.78125 7.648438 -0.492188 7.421875 -0.265625 C 7.191406 -0.0351562 6.863281 0.078125 6.4375 0.078125 C 5.539062 0.078125 4.84375 -0.015625 4.34375 -0.203125 C 3.84375 -0.390625 3.488281 -0.726562 3.28125 -1.21875 C 2.863281 -0.644531 2.375 -0.285156 1.8125 -0.140625 C 1.25 0.00390625 0.644531 0.078125 0 0.078125 Z M 3.671875 -7.109375 C 3.328125 -7.109375 3.035156 -7.222656 2.796875 -7.453125 C 2.554688 -7.691406 2.4375 -7.984375 2.4375 -8.328125 C 2.4375 -8.679688 2.554688 -8.976562 2.796875 -9.21875 C 3.035156 -9.46875 3.328125 -9.59375 3.671875 -9.59375 C 4.003906 -9.59375 4.289062 -9.46875 4.53125 -9.21875 C 4.769531 -8.976562 4.890625 -8.679688 4.890625 -8.328125 C 4.890625 -7.984375 4.769531 -7.691406 4.53125 -7.453125 C 4.289062 -7.222656 4.003906 -7.109375 3.671875 -7.109375 Z M 3.671875 -7.109375" transform="translate(43.638 68.528)"/></g></g></g><g fill="#99621B"><g><g><path d="M 0 0.078125 L 0.171875 -2.265625 C 0.429688 -2.265625 0.632812 -2.316406 0.78125 -2.421875 C 0.9375 -2.535156 1.085938 -2.726562 1.234375 -3 C 1.378906 -3.28125 1.582031 -3.664062 1.84375 -4.15625 C 2.40625 -5.21875 3 -5.953125 3.625 -6.359375 C 4.257812 -6.773438 4.867188 -6.984375 5.453125 -6.984375 C 6.066406 -6.984375 6.632812 -6.78125 7.15625 -6.375 C 7.675781 -5.96875 8.164062 -5.21875 8.625 -4.125 C 8.945312 -3.363281 9.269531 -2.863281 9.59375 -2.625 C 9.914062 -2.382812 10.257812 -2.265625 10.625 -2.265625 C 11.039062 -2.265625 11.335938 -2.15625 11.515625 -1.9375 C 11.703125 -1.71875 11.796875 -1.445312 11.796875 -1.125 C 11.796875 -0.78125 11.675781 -0.492188 11.4375 -0.265625 C 11.207031 -0.0351562 10.878906 0.078125 10.453125 0.078125 C 9.960938 0.078125 9.507812 0.00390625 9.09375 -0.140625 C 8.675781 -0.285156 8.335938 -0.492188 8.078125 -0.765625 C 7.878906 -0.492188 7.613281 -0.25 7.28125 -0.03125 C 6.957031 0.1875 6.5625 0.296875 6.09375 0.296875 C 5.8125 0.296875 5.484375 0.242188 5.109375 0.140625 C 4.742188 0.0351562 4.359375 -0.140625 3.953125 -0.390625 C 3.554688 -0.640625 3.191406 -0.984375 2.859375 -1.421875 C 2.535156 -0.828125 2.160156 -0.425781 1.734375 -0.21875 C 1.316406 -0.0195312 0.738281 0.078125 0 0.078125 Z M 3.828125 -3.40625 C 4.046875 -3.050781 4.351562 -2.734375 4.75 -2.453125 C 5.15625 -2.171875 5.578125 -2.03125 6.015625 -2.03125 C 6.234375 -2.03125 6.414062 -2.113281 6.5625 -2.28125 C 6.707031 -2.457031 6.710938 -2.71875 6.578125 -3.0625 C 6.503906 -3.25 6.394531 -3.472656 6.25 -3.734375 C 6.113281 -3.992188 5.957031 -4.210938 5.78125 -4.390625 C 5.613281 -4.578125 5.425781 -4.671875 5.21875 -4.671875 C 5 -4.671875 4.769531 -4.566406 4.53125 -4.359375 C 4.300781 -4.160156 4.066406 -3.84375 3.828125 -3.40625 Z M 3.828125 -3.40625" transform="translate(50.403 68.528)"/></g></g></g><g fill="#99621B"><g><g><path d="M 0 0.078125 L 0.171875 -2.265625 L 2.5625 -2.265625 C 3.5 -2.265625 3.96875 -2.523438 3.96875 -3.046875 C 3.96875 -3.179688 3.894531 -3.394531 3.75 -3.6875 C 3.613281 -3.988281 3.316406 -4.351562 2.859375 -4.78125 C 2.617188 -5 2.351562 -5.234375 2.0625 -5.484375 C 1.78125 -5.734375 1.507812 -5.972656 1.25 -6.203125 C 1 -6.429688 0.789062 -6.632812 0.625 -6.8125 C 0.457031 -6.988281 0.375 -7.117188 0.375 -7.203125 C 0.375 -7.453125 0.394531 -7.734375 0.4375 -8.046875 C 0.488281 -8.359375 0.582031 -8.566406 0.71875 -8.671875 C 0.976562 -8.910156 1.394531 -9.203125 1.96875 -9.546875 C 2.539062 -9.890625 3.238281 -10.269531 4.0625 -10.6875 C 4.882812 -11.101562 5.789062 -11.523438 6.78125 -11.953125 L 7.734375 -9.921875 C 6.796875 -9.515625 5.9375 -9.117188 5.15625 -8.734375 C 4.375 -8.359375 3.6875 -8 3.09375 -7.65625 C 3.863281 -7.019531 4.476562 -6.445312 4.9375 -5.9375 C 5.40625 -5.425781 5.753906 -4.96875 5.984375 -4.5625 C 6.210938 -4.15625 6.363281 -3.789062 6.4375 -3.46875 C 6.507812 -3.144531 6.546875 -2.859375 6.546875 -2.609375 C 6.546875 -2.347656 6.476562 -2.0625 6.34375 -1.75 C 6.21875 -1.445312 5.988281 -1.15625 5.65625 -0.875 C 5.332031 -0.59375 4.875 -0.363281 4.28125 -0.1875 C 3.695312 -0.0078125 2.941406 0.078125 2.015625 0.078125 Z M 0 0.078125" transform="translate(61.187 68.528)"/></g></g></g><g fill="#99621B"><g><g><path d="M 0.4375 -0.46875 C 0.4375 -0.84375 0.488281 -1.328125 0.59375 -1.921875 C 0.695312 -2.515625 0.9375 -3.21875 1.3125 -4.03125 L 3.359375 -3.3125 C 3.171875 -2.789062 3.023438 -2.34375 2.921875 -1.96875 C 2.828125 -1.59375 2.78125 -1.226562 2.78125 -0.875 C 2.78125 -0.113281 3.035156 0.472656 3.546875 0.890625 C 4.066406 1.316406 4.820312 1.53125 5.8125 1.53125 C 6.707031 1.53125 7.40625 1.398438 7.90625 1.140625 C 8.40625 0.878906 8.753906 0.535156 8.953125 0.109375 C 9.160156 -0.316406 9.265625 -0.800781 9.265625 -1.34375 C 9.265625 -1.800781 9.179688 -2.351562 9.015625 -3 C 8.859375 -3.644531 8.648438 -4.359375 8.390625 -5.140625 L 10.734375 -5.75 C 10.890625 -5.101562 11.015625 -4.597656 11.109375 -4.234375 C 11.203125 -3.878906 11.28125 -3.613281 11.34375 -3.4375 C 11.507812 -2.9375 11.769531 -2.613281 12.125 -2.46875 C 12.476562 -2.332031 12.988281 -2.265625 13.65625 -2.265625 C 14.0625 -2.265625 14.359375 -2.15625 14.546875 -1.9375 C 14.734375 -1.71875 14.828125 -1.445312 14.828125 -1.125 C 14.828125 -0.78125 14.707031 -0.492188 14.46875 -0.265625 C 14.238281 -0.0351562 13.910156 0.078125 13.484375 0.078125 C 13.117188 0.078125 12.753906 0.03125 12.390625 -0.0625 C 12.035156 -0.15625 11.726562 -0.3125 11.46875 -0.53125 C 11.320312 0.863281 10.742188 1.945312 9.734375 2.71875 C 8.722656 3.488281 7.394531 3.875 5.75 3.875 C 4.75 3.875 3.847656 3.722656 3.046875 3.421875 C 2.242188 3.128906 1.609375 2.664062 1.140625 2.03125 C 0.671875 1.394531 0.4375 0.5625 0.4375 -0.46875 Z M 0.4375 -0.46875" transform="translate(74.816 68.528)"/></g></g></g><g fill="#99621B"><g><g><path d="M 0 0.078125 L 0.171875 -2.265625 C 0.566406 -2.265625 0.910156 -2.300781 1.203125 -2.375 C 1.492188 -2.457031 1.738281 -2.617188 1.9375 -2.859375 C 2.144531 -3.097656 2.316406 -3.453125 2.453125 -3.921875 C 2.585938 -4.390625 2.710938 -5.015625 2.828125 -5.796875 L 5.03125 -5.421875 C 4.976562 -5.171875 4.925781 -4.863281 4.875 -4.5 C 4.820312 -4.144531 4.796875 -3.816406 4.796875 -3.515625 C 4.796875 -3.117188 4.960938 -2.8125 5.296875 -2.59375 C 5.628906 -2.375 6.203125 -2.265625 7.015625 -2.265625 C 7.429688 -2.265625 7.726562 -2.15625 7.90625 -1.9375 C 8.09375 -1.71875 8.1875 -1.445312 8.1875 -1.125 C 8.1875 -0.78125 8.070312 -0.492188 7.84375 -0.265625 C 7.613281 -0.0351562 7.28125 0.078125 6.84375 0.078125 C 6.0625 0.078125 5.394531 -0.0195312 4.84375 -0.21875 C 4.289062 -0.414062 3.890625 -0.773438 3.640625 -1.296875 C 3.335938 -0.890625 2.976562 -0.585938 2.5625 -0.390625 C 2.15625 -0.191406 1.734375 -0.0625 1.296875 0 C 0.859375 0.0507812 0.425781 0.078125 0 0.078125 Z M 4.875 3.890625 C 4.550781 3.890625 4.273438 3.773438 4.046875 3.546875 C 3.816406 3.328125 3.703125 3.054688 3.703125 2.734375 C 3.703125 2.410156 3.816406 2.128906 4.046875 1.890625 C 4.273438 1.660156 4.550781 1.546875 4.875 1.546875 C 5.1875 1.546875 5.453125 1.660156 5.671875 1.890625 C 5.898438 2.128906 6.015625 2.410156 6.015625 2.734375 C 6.015625 3.054688 5.898438 3.328125 5.671875 3.546875 C 5.453125 3.773438 5.1875 3.890625 4.875 3.890625 Z M 1.96875 3.890625 C 1.644531 3.890625 1.367188 3.773438 1.140625 3.546875 C 0.910156 3.328125 0.796875 3.054688 0.796875 2.734375 C 0.796875 2.410156 0.910156 2.128906 1.140625 1.890625 C 1.367188 1.660156 1.644531 1.546875 1.96875 1.546875 C 2.28125 1.546875 2.546875 1.660156 2.765625 1.890625 C 2.992188 2.128906 3.109375 2.410156 3.109375 2.734375 C 3.109375 3.054688 2.992188 3.328125 2.765625 3.546875 C 2.546875 3.773438 2.28125 3.890625 1.96875 3.890625 Z M 1.96875 3.890625" transform="translate(88.631 68.528)"/></g></g></g><g fill="#99621B"><g><g><path d="M 0 0.078125 L 0.171875 -2.265625 C 0.890625 -2.265625 1.394531 -2.34375 1.6875 -2.5 C 1.976562 -2.664062 2.125 -3.007812 2.125 -3.53125 C 2.125 -3.84375 2.082031 -4.21875 2 -4.65625 C 1.914062 -5.09375 1.804688 -5.539062 1.671875 -6 C 1.535156 -6.46875 1.398438 -6.898438 1.265625 -7.296875 L 3.578125 -7.9375 C 3.710938 -7.5625 3.847656 -7.117188 3.984375 -6.609375 C 4.117188 -6.109375 4.234375 -5.585938 4.328125 -5.046875 C 4.421875 -4.515625 4.46875 -4.007812 4.46875 -3.53125 C 4.46875 -2.769531 4.347656 -2.148438 4.109375 -1.671875 C 3.878906 -1.203125 3.554688 -0.835938 3.140625 -0.578125 C 2.722656 -0.328125 2.242188 -0.15625 1.703125 -0.0625 C 1.171875 0.03125 0.601562 0.078125 0 0.078125 Z M 2.328125 0.328125 L 2.90625 1.03125 C 2.539062 1.25 2.316406 1.46875 2.234375 1.6875 L 2.25 1.6875 C 2.851562 1.6875 3.15625 1.898438 3.15625 2.328125 C 3.15625 2.484375 3.082031 2.664062 2.9375 2.875 C 2.800781 3.09375 2.53125 3.203125 2.125 3.203125 C 1.832031 3.203125 1.570312 3.117188 1.34375 2.953125 C 1.113281 2.785156 1 2.515625 1 2.140625 C 1 1.816406 1.097656 1.476562 1.296875 1.125 C 1.503906 0.78125 1.847656 0.515625 2.328125 0.328125 Z M 2.328125 0.328125" transform="translate(95.815 68.528)"/></g></g></g><g fill="#99621B"><g><g><path d="M 7.4375 4.984375 C 5.019531 4.984375 3.175781 4.742188 1.90625 4.265625 C 0.632812 3.796875 0 3.003906 0 1.890625 C 0 1.097656 0.320312 0.390625 0.96875 -0.234375 C 1.613281 -0.867188 2.640625 -1.363281 4.046875 -1.71875 C 5.453125 -2.082031 7.289062 -2.265625 9.5625 -2.265625 C 9.976562 -2.265625 10.28125 -2.15625 10.46875 -1.9375 C 10.65625 -1.71875 10.75 -1.445312 10.75 -1.125 C 10.75 -0.78125 10.628906 -0.492188 10.390625 -0.265625 C 10.160156 -0.0351562 9.828125 0.078125 9.390625 0.078125 C 7.847656 0.078125 6.554688 0.15625 5.515625 0.3125 C 4.472656 0.476562 3.6875 0.675781 3.15625 0.90625 C 2.632812 1.144531 2.375 1.382812 2.375 1.625 C 2.375 1.8125 2.53125 1.976562 2.84375 2.125 C 3.164062 2.28125 3.695312 2.40625 4.4375 2.5 C 5.1875 2.59375 6.195312 2.640625 7.46875 2.640625 C 9.226562 2.640625 10.742188 2.570312 12.015625 2.4375 C 13.296875 2.3125 14.242188 2.191406 14.859375 2.078125 L 14.625 4.359375 C 14.320312 4.429688 13.910156 4.503906 13.390625 4.578125 C 12.867188 4.660156 12.28125 4.734375 11.625 4.796875 C 10.976562 4.859375 10.296875 4.90625 9.578125 4.9375 C 8.859375 4.96875 8.144531 4.984375 7.4375 4.984375 Z M 7.4375 4.984375" transform="translate(107.15 68.528)"/></g></g></g><g fill="#99621B"><g><g><path d="M 0 0.078125 L 0.171875 -2.265625 C 0.566406 -2.265625 0.910156 -2.300781 1.203125 -2.375 C 1.492188 -2.457031 1.738281 -2.617188 1.9375 -2.859375 C 2.144531 -3.097656 2.316406 -3.453125 2.453125 -3.921875 C 2.585938 -4.390625 2.710938 -5.015625 2.828125 -5.796875 L 5.03125 -5.421875 C 4.976562 -5.171875 4.925781 -4.863281 4.875 -4.5 C 4.820312 -4.144531 4.796875 -3.816406 4.796875 -3.515625 C 4.796875 -3.117188 4.960938 -2.8125 5.296875 -2.59375 C 5.628906 -2.375 6.203125 -2.265625 7.015625 -2.265625 C 7.429688 -2.265625 7.726562 -2.15625 7.90625 -1.9375 C 8.09375 -1.71875 8.1875 -1.445312 8.1875 -1.125 C 8.1875 -0.78125 8.070312 -0.492188 7.84375 -0.265625 C 7.613281 -0.0351562 7.28125 0.078125 6.84375 0.078125 C 6.0625 0.078125 5.394531 -0.0195312 4.84375 -0.21875 C 4.289062 -0.414062 3.890625 -0.773438 3.640625 -1.296875 C 3.335938 -0.890625 2.976562 -0.585938 2.5625 -0.390625 C 2.15625 -0.191406 1.734375 -0.0625 1.296875 0 C 0.859375 0.0507812 0.425781 0.078125 0 0.078125 Z M 2.640625 -7.09375 C 2.316406 -7.09375 2.039062 -7.207031 1.8125 -7.4375 C 1.582031 -7.664062 1.46875 -7.9375 1.46875 -8.25 C 1.46875 -8.570312 1.582031 -8.847656 1.8125 -9.078125 C 2.039062 -9.316406 2.316406 -9.4375 2.640625 -9.4375 C 2.953125 -9.4375 3.21875 -9.316406 3.4375 -9.078125 C 3.664062 -8.847656 3.78125 -8.570312 3.78125 -8.25 C 3.78125 -7.9375 3.664062 -7.664062 3.4375 -7.4375 C 3.21875 -7.207031 2.953125 -7.09375 2.640625 -7.09375 Z M 5.546875 -7.078125 C 5.210938 -7.078125 4.929688 -7.1875 4.703125 -7.40625 C 4.472656 -7.632812 4.359375 -7.910156 4.359375 -8.234375 C 4.359375 -8.554688 4.472656 -8.832031 4.703125 -9.0625 C 4.929688 -9.300781 5.210938 -9.421875 5.546875 -9.421875 C 5.859375 -9.421875 6.125 -9.300781 6.34375 -9.0625 C 6.5625 -8.832031 6.671875 -8.554688 6.671875 -8.234375 C 6.671875 -7.910156 6.5625 -7.632812 6.34375 -7.40625 C 6.125 -7.1875 5.859375 -7.078125 5.546875 -7.078125 Z M 5.546875 -7.078125" transform="translate(116.879 68.528)"/></g></g></g><g fill="#99621B"><g><g><path d="M 0 0.078125 L 0.171875 -2.265625 C 0.679688 -2.265625 1.046875 -2.316406 1.265625 -2.421875 C 1.492188 -2.523438 1.628906 -2.722656 1.671875 -3.015625 C 1.710938 -3.316406 1.722656 -3.753906 1.703125 -4.328125 L 1.40625 -12.265625 L 3.765625 -12.265625 L 4.109375 -4.15625 C 4.128906 -3.507812 4.101562 -2.925781 4.03125 -2.40625 C 3.957031 -1.882812 3.78125 -1.4375 3.5 -1.0625 C 3.226562 -0.695312 2.8125 -0.414062 2.25 -0.21875 C 1.6875 -0.0195312 0.9375 0.078125 0 0.078125 Z M 0 0.078125" transform="translate(124.063 68.528)"/></g></g></g><g fill="#99621B"><g><g><path d="M 1.34375 0 L 0.984375 -12.265625 L 3.328125 -12.265625 L 3.6875 0 Z M 1.34375 0" transform="translate(129.372 68.528)"/></g></g></g><g fill="#99621B"><g><g><path d="M 0.59375 -0.671875 L 1.40625 -2.796875 C 2.195312 -2.441406 2.972656 -2.265625 3.734375 -2.265625 C 4.921875 -2.265625 5.515625 -2.582031 5.515625 -3.21875 C 5.515625 -3.40625 5.453125 -3.664062 5.328125 -4 C 5.210938 -4.332031 5.003906 -4.769531 4.703125 -5.3125 C 4.398438 -5.851562 3.960938 -6.53125 3.390625 -7.34375 L 5.375 -8.65625 C 6.164062 -7.507812 6.800781 -6.421875 7.28125 -5.390625 C 7.757812 -4.367188 8 -3.503906 8 -2.796875 C 8 -1.929688 7.65625 -1.234375 6.96875 -0.703125 C 6.289062 -0.171875 5.296875 0.09375 3.984375 0.09375 C 3.660156 0.09375 3.296875 0.0664062 2.890625 0.015625 C 2.484375 -0.0351562 2.078125 -0.117188 1.671875 -0.234375 C 1.273438 -0.347656 0.914062 -0.492188 0.59375 -0.671875 Z M 3.296875 -10.828125 C 3.078125 -10.828125 2.832031 -10.832031 2.5625 -10.84375 C 2.289062 -10.863281 2.035156 -10.882812 1.796875 -10.90625 C 1.554688 -10.9375 1.375 -10.957031 1.25 -10.96875 L 1.296875 -12.015625 C 1.441406 -11.992188 1.609375 -11.976562 1.796875 -11.96875 C 1.890625 -12.125 1.984375 -12.28125 2.078125 -12.4375 L 1.984375 -15.25 L 3.078125 -15.25 L 3.140625 -13.59375 C 3.609375 -13.925781 4.066406 -14.09375 4.515625 -14.09375 C 4.941406 -14.09375 5.28125 -13.945312 5.53125 -13.65625 C 5.789062 -13.375 5.921875 -13.023438 5.921875 -12.609375 C 5.921875 -12.359375 5.851562 -12.097656 5.71875 -11.828125 C 5.582031 -11.554688 5.328125 -11.320312 4.953125 -11.125 C 4.585938 -10.925781 4.035156 -10.828125 3.296875 -10.828125 Z M 4.328125 -12.96875 C 4.085938 -12.96875 3.84375 -12.851562 3.59375 -12.625 C 3.34375 -12.40625 3.132812 -12.164062 2.96875 -11.90625 C 3.039062 -11.90625 3.109375 -11.90625 3.171875 -11.90625 C 3.796875 -11.90625 4.222656 -11.960938 4.453125 -12.078125 C 4.679688 -12.191406 4.796875 -12.34375 4.796875 -12.53125 C 4.796875 -12.632812 4.753906 -12.734375 4.671875 -12.828125 C 4.585938 -12.921875 4.472656 -12.96875 4.328125 -12.96875 Z M 4.328125 -12.96875" transform="translate(134.278 68.528)"/></g></g></g><g fill="#99621B"><g><g><path d="M 0.953125 3.859375 L 0.46875 1.5 C 1.46875 1.382812 2.3125 1.226562 3 1.03125 C 3.6875 0.832031 4.222656 0.515625 4.609375 0.078125 L 4.15625 0.078125 C 3.101562 0.078125 2.273438 -0.113281 1.671875 -0.5 C 1.078125 -0.882812 0.78125 -1.546875 0.78125 -2.484375 C 0.78125 -2.984375 0.867188 -3.484375 1.046875 -3.984375 C 1.222656 -4.484375 1.46875 -4.941406 1.78125 -5.359375 C 2.09375 -5.785156 2.457031 -6.125 2.875 -6.375 C 3.289062 -6.625 3.742188 -6.75 4.234375 -6.75 C 4.890625 -6.75 5.472656 -6.539062 5.984375 -6.125 C 6.492188 -5.71875 6.890625 -5.171875 7.171875 -4.484375 C 7.460938 -3.804688 7.609375 -3.066406 7.609375 -2.265625 L 8.921875 -2.265625 C 9.335938 -2.265625 9.640625 -2.15625 9.828125 -1.9375 C 10.015625 -1.71875 10.109375 -1.445312 10.109375 -1.125 C 10.109375 -0.78125 9.988281 -0.492188 9.75 -0.265625 C 9.519531 -0.0351562 9.191406 0.078125 8.765625 0.078125 L 7.21875 0.078125 C 6.78125 1.242188 6.019531 2.140625 4.9375 2.765625 C 3.863281 3.398438 2.535156 3.765625 0.953125 3.859375 Z M 3.09375 -2.875 C 3.09375 -2.757812 3.132812 -2.632812 3.21875 -2.5 C 3.300781 -2.375 3.492188 -2.273438 3.796875 -2.203125 C 4.097656 -2.128906 4.582031 -2.117188 5.25 -2.171875 C 5.226562 -2.828125 5.117188 -3.335938 4.921875 -3.703125 C 4.722656 -4.078125 4.460938 -4.265625 4.140625 -4.265625 C 3.898438 -4.265625 3.703125 -4.179688 3.546875 -4.015625 C 3.390625 -3.859375 3.273438 -3.671875 3.203125 -3.453125 C 3.128906 -3.234375 3.09375 -3.039062 3.09375 -2.875 Z M 3.09375 -2.875" transform="translate(148.961 68.528)"/></g></g></g><g fill="#99621B"><g><g><path d="M 0 0.078125 L 0.171875 -2.265625 C 1.367188 -2.265625 2.535156 -2.394531 3.671875 -2.65625 C 4.816406 -2.925781 5.832031 -3.359375 6.71875 -3.953125 C 6.207031 -4.253906 5.640625 -4.488281 5.015625 -4.65625 C 4.398438 -4.820312 3.722656 -4.90625 2.984375 -4.90625 C 2.703125 -4.90625 2.410156 -4.890625 2.109375 -4.859375 C 1.816406 -4.835938 1.519531 -4.789062 1.21875 -4.71875 L 0.890625 -7.015625 C 1.210938 -7.097656 1.550781 -7.160156 1.90625 -7.203125 C 2.269531 -7.242188 2.59375 -7.265625 2.875 -7.265625 C 3.632812 -7.265625 4.316406 -7.164062 4.921875 -6.96875 C 5.523438 -6.769531 6.070312 -6.535156 6.5625 -6.265625 C 7.0625 -5.992188 7.523438 -5.757812 7.953125 -5.5625 C 8.390625 -5.363281 8.816406 -5.265625 9.234375 -5.265625 L 9.84375 -5.265625 L 10.109375 -3.03125 C 9.617188 -3 9.164062 -2.90625 8.75 -2.75 C 8.34375 -2.59375 7.9375 -2.394531 7.53125 -2.15625 C 7.125 -1.914062 6.6875 -1.664062 6.21875 -1.40625 C 5.757812 -1.144531 5.238281 -0.90625 4.65625 -0.6875 C 4.070312 -0.46875 3.398438 -0.285156 2.640625 -0.140625 C 1.878906 0.00390625 1 0.078125 0 0.078125 Z M 4.609375 3.90625 C 4.285156 3.90625 4.007812 3.789062 3.78125 3.5625 C 3.550781 3.34375 3.4375 3.070312 3.4375 2.75 C 3.4375 2.425781 3.550781 2.144531 3.78125 1.90625 C 4.007812 1.664062 4.285156 1.546875 4.609375 1.546875 C 4.921875 1.546875 5.191406 1.664062 5.421875 1.90625 C 5.660156 2.144531 5.78125 2.425781 5.78125 2.75 C 5.78125 3.070312 5.660156 3.34375 5.421875 3.5625 C 5.191406 3.789062 4.921875 3.90625 4.609375 3.90625 Z M 4.609375 3.90625" transform="translate(158.071 68.528)"/></g></g></g><g fill="#99621B"><g><g><path d="M 9.8125 0.078125 C 9.03125 0.078125 8.394531 -0.0078125 7.90625 -0.1875 C 7.425781 -0.363281 7.046875 -0.601562 6.765625 -0.90625 C 6.484375 -1.21875 6.253906 -1.570312 6.078125 -1.96875 C 5.898438 -2.375 5.726562 -2.804688 5.5625 -3.265625 C 5.40625 -3.671875 5.25 -3.929688 5.09375 -4.046875 C 4.9375 -4.160156 4.742188 -4.21875 4.515625 -4.21875 C 3.941406 -4.21875 3.472656 -4.050781 3.109375 -3.71875 C 2.753906 -3.382812 2.578125 -3.007812 2.578125 -2.59375 C 2.578125 -2.300781 2.617188 -1.992188 2.703125 -1.671875 C 2.796875 -1.359375 2.898438 -1.035156 3.015625 -0.703125 L 0.90625 -0.125 C 0.757812 -0.5 0.609375 -0.910156 0.453125 -1.359375 C 0.304688 -1.804688 0.234375 -2.253906 0.234375 -2.703125 C 0.234375 -3.253906 0.363281 -3.765625 0.625 -4.234375 C 0.882812 -4.710938 1.234375 -5.125 1.671875 -5.46875 C 2.117188 -5.820312 2.613281 -6.09375 3.15625 -6.28125 C 3.707031 -6.46875 4.265625 -6.5625 4.828125 -6.5625 C 5.378906 -6.5625 5.890625 -6.460938 6.359375 -6.265625 C 6.828125 -6.066406 7.160156 -5.6875 7.359375 -5.125 C 7.566406 -4.519531 7.75 -4.03125 7.90625 -3.65625 C 8.070312 -3.28125 8.242188 -2.992188 8.421875 -2.796875 C 8.597656 -2.597656 8.8125 -2.457031 9.0625 -2.375 C 9.3125 -2.300781 9.617188 -2.265625 9.984375 -2.265625 C 10.410156 -2.265625 10.710938 -2.15625 10.890625 -1.9375 C 11.066406 -1.71875 11.15625 -1.445312 11.15625 -1.125 C 11.15625 -0.78125 11.035156 -0.492188 10.796875 -0.265625 C 10.566406 -0.0351562 10.238281 0.078125 9.8125 0.078125 Z M 9.8125 0.078125" transform="translate(174.63 68.528)"/></g></g></g><g fill="#99621B"><g><g><path d="M 0 0.078125 L 0.171875 -2.265625 C 0.835938 -2.265625 1.347656 -2.296875 1.703125 -2.359375 C 2.066406 -2.429688 2.316406 -2.554688 2.453125 -2.734375 C 2.585938 -2.921875 2.65625 -3.1875 2.65625 -3.53125 C 2.65625 -3.84375 2.613281 -4.21875 2.53125 -4.65625 C 2.445312 -5.09375 2.335938 -5.539062 2.203125 -6 C 2.078125 -6.46875 1.945312 -6.898438 1.8125 -7.296875 L 4.125 -7.9375 C 4.257812 -7.5625 4.394531 -7.117188 4.53125 -6.609375 C 4.664062 -6.109375 4.78125 -5.585938 4.875 -5.046875 C 4.96875 -4.515625 5.015625 -4.007812 5.015625 -3.53125 C 5.015625 -2.769531 4.890625 -2.148438 4.640625 -1.671875 C 4.390625 -1.203125 4.046875 -0.835938 3.609375 -0.578125 C 3.171875 -0.328125 2.644531 -0.15625 2.03125 -0.0625 C 1.414062 0.03125 0.738281 0.078125 0 0.078125 Z M 0.90625 3.671875 C 0.613281 3.671875 0.363281 3.566406 0.15625 3.359375 C -0.0507812 3.160156 -0.15625 2.914062 -0.15625 2.625 C -0.15625 2.332031 -0.0507812 2.082031 0.15625 1.875 C 0.363281 1.664062 0.613281 1.5625 0.90625 1.5625 C 1.195312 1.5625 1.441406 1.664062 1.640625 1.875 C 1.835938 2.082031 1.9375 2.332031 1.9375 2.625 C 1.9375 2.914062 1.835938 3.160156 1.640625 3.359375 C 1.441406 3.566406 1.195312 3.671875 0.90625 3.671875 Z M 3.515625 3.671875 C 3.222656 3.671875 2.972656 3.566406 2.765625 3.359375 C 2.566406 3.160156 2.46875 2.914062 2.46875 2.625 C 2.46875 2.332031 2.566406 2.082031 2.765625 1.875 C 2.972656 1.664062 3.222656 1.5625 3.515625 1.5625 C 3.804688 1.5625 4.050781 1.664062 4.25 1.875 C 4.457031 2.082031 4.5625 2.332031 4.5625 2.625 C 4.5625 2.914062 4.457031 3.160156 4.25 3.359375 C 4.050781 3.566406 3.804688 3.671875 3.515625 3.671875 Z M 2.171875 5.875 C 1.878906 5.875 1.628906 5.773438 1.421875 5.578125 C 1.222656 5.378906 1.125 5.132812 1.125 4.84375 C 1.125 4.550781 1.222656 4.296875 1.421875 4.078125 C 1.628906 3.867188 1.878906 3.765625 2.171875 3.765625 C 2.460938 3.765625 2.707031 3.867188 2.90625 4.078125 C 3.113281 4.296875 3.21875 4.550781 3.21875 4.84375 C 3.21875 5.132812 3.113281 5.378906 2.90625 5.578125 C 2.707031 5.773438 2.460938 5.875 2.171875 5.875 Z M 2.171875 5.875" transform="translate(184.778 68.528)"/></g></g></g><g fill="#99621B"><g><g><path d="M 0.4375 -0.46875 C 0.4375 -0.84375 0.488281 -1.328125 0.59375 -1.921875 C 0.695312 -2.515625 0.9375 -3.21875 1.3125 -4.03125 L 3.359375 -3.3125 C 3.171875 -2.789062 3.023438 -2.34375 2.921875 -1.96875 C 2.828125 -1.59375 2.78125 -1.226562 2.78125 -0.875 C 2.78125 -0.0390625 3.054688 0.566406 3.609375 0.953125 C 4.160156 1.335938 4.894531 1.53125 5.8125 1.53125 C 6.5 1.53125 7.066406 1.4375 7.515625 1.25 C 7.960938 1.0625 8.304688 0.816406 8.546875 0.515625 C 8.796875 0.222656 8.972656 -0.09375 9.078125 -0.4375 C 9.179688 -0.789062 9.234375 -1.132812 9.234375 -1.46875 C 9.234375 -1.914062 9.15625 -2.457031 9 -3.09375 C 8.84375 -3.726562 8.5625 -4.445312 8.15625 -5.25 L 10.3125 -6.15625 C 10.539062 -5.769531 10.75 -5.316406 10.9375 -4.796875 C 11.125 -4.273438 11.273438 -3.734375 11.390625 -3.171875 C 11.515625 -2.617188 11.578125 -2.09375 11.578125 -1.59375 C 11.578125 -1.144531 11.519531 -0.671875 11.40625 -0.171875 C 11.289062 0.316406 11.101562 0.800781 10.84375 1.28125 C 10.582031 1.769531 10.226562 2.207031 9.78125 2.59375 C 9.332031 2.976562 8.78125 3.285156 8.125 3.515625 C 7.46875 3.753906 6.679688 3.875 5.765625 3.875 C 4.773438 3.875 3.878906 3.726562 3.078125 3.4375 C 2.273438 3.144531 1.632812 2.675781 1.15625 2.03125 C 0.675781 1.394531 0.4375 0.5625 0.4375 -0.46875 Z M 0.4375 -0.46875" transform="translate(196.816 68.528)"/></g></g></g><g fill="#99621B"><g><g><path d="M 0.953125 3.859375 L 0.46875 1.5 C 1.539062 1.375 2.4375 1.203125 3.15625 0.984375 C 3.875 0.765625 4.40625 0.394531 4.75 -0.125 C 4.59375 -0.0625 4.421875 -0.015625 4.234375 0.015625 C 4.054688 0.046875 3.863281 0.0625 3.65625 0.0625 C 3.113281 0.0625 2.628906 -0.0195312 2.203125 -0.1875 C 1.773438 -0.363281 1.429688 -0.632812 1.171875 -1 C 0.910156 -1.375 0.78125 -1.859375 0.78125 -2.453125 C 0.78125 -2.992188 0.867188 -3.519531 1.046875 -4.03125 C 1.234375 -4.550781 1.484375 -5.015625 1.796875 -5.421875 C 2.117188 -5.828125 2.488281 -6.148438 2.90625 -6.390625 C 3.320312 -6.628906 3.765625 -6.75 4.234375 -6.75 C 4.785156 -6.75 5.269531 -6.609375 5.6875 -6.328125 C 6.113281 -6.046875 6.46875 -5.679688 6.75 -5.234375 C 7.03125 -4.785156 7.242188 -4.296875 7.390625 -3.765625 C 7.535156 -3.242188 7.609375 -2.742188 7.609375 -2.265625 C 7.609375 -1.003906 7.335938 0.0664062 6.796875 0.953125 C 6.265625 1.835938 5.5 2.519531 4.5 3 C 3.507812 3.488281 2.328125 3.773438 0.953125 3.859375 Z M 3.09375 -2.921875 C 3.09375 -2.453125 3.445312 -2.21875 4.15625 -2.21875 C 4.519531 -2.21875 4.882812 -2.265625 5.25 -2.359375 C 5.21875 -2.660156 5.160156 -2.957031 5.078125 -3.25 C 4.992188 -3.550781 4.875 -3.796875 4.71875 -3.984375 C 4.5625 -4.171875 4.367188 -4.265625 4.140625 -4.265625 C 3.828125 -4.265625 3.570312 -4.117188 3.375 -3.828125 C 3.1875 -3.535156 3.09375 -3.234375 3.09375 -2.921875 Z M 3.09375 -2.921875" transform="translate(209.56 68.528)"/></g></g></g><g fill="#99621B"><g><g><path d="M 0.265625 3.859375 L -0.59375 1.703125 C 0.84375 1.203125 1.882812 0.628906 2.53125 -0.015625 C 3.175781 -0.671875 3.5 -1.367188 3.5 -2.109375 C 3.5 -2.578125 3.394531 -3.078125 3.1875 -3.609375 C 2.988281 -4.148438 2.726562 -4.734375 2.40625 -5.359375 L 4.609375 -6.421875 C 4.992188 -5.671875 5.296875 -4.953125 5.515625 -4.265625 C 5.734375 -3.585938 5.84375 -2.953125 5.84375 -2.359375 C 5.84375 -0.984375 5.394531 0.222656 4.5 1.265625 C 3.613281 2.316406 2.203125 3.179688 0.265625 3.859375 Z M 0.265625 3.859375" transform="translate(218.234 68.528)"/></g></g></g><g fill="#99621B"><g><g><path d="M 5.3125 0.078125 C 4.269531 0.078125 3.46875 -0.0234375 2.90625 -0.234375 C 2.34375 -0.441406 1.945312 -0.769531 1.71875 -1.21875 C 1.488281 -1.675781 1.363281 -2.253906 1.34375 -2.953125 L 0.984375 -12.265625 L 3.328125 -12.265625 L 3.6875 -4.0625 C 3.707031 -3.550781 3.757812 -3.164062 3.84375 -2.90625 C 3.9375 -2.65625 4.101562 -2.484375 4.34375 -2.390625 C 4.59375 -2.304688 4.972656 -2.265625 5.484375 -2.265625 C 5.890625 -2.265625 6.1875 -2.15625 6.375 -1.9375 C 6.570312 -1.71875 6.671875 -1.445312 6.671875 -1.125 C 6.671875 -0.78125 6.550781 -0.492188 6.3125 -0.265625 C 6.082031 -0.0351562 5.75 0.078125 5.3125 0.078125 Z M 5.3125 0.078125" transform="translate(225.418 68.528)"/></g></g></g><g fill="#99621B"><g><g><path d="M 0 0.078125 L 0.171875 -2.265625 C 0.566406 -2.265625 0.910156 -2.300781 1.203125 -2.375 C 1.492188 -2.457031 1.738281 -2.617188 1.9375 -2.859375 C 2.144531 -3.097656 2.316406 -3.453125 2.453125 -3.921875 C 2.585938 -4.390625 2.710938 -5.015625 2.828125 -5.796875 L 5.03125 -5.421875 C 4.976562 -5.171875 4.925781 -4.863281 4.875 -4.5 C 4.820312 -4.144531 4.796875 -3.816406 4.796875 -3.515625 C 4.796875 -3.117188 4.960938 -2.8125 5.296875 -2.59375 C 5.628906 -2.375 6.203125 -2.265625 7.015625 -2.265625 C 7.429688 -2.265625 7.726562 -2.15625 7.90625 -1.9375 C 8.09375 -1.71875 8.1875 -1.445312 8.1875 -1.125 C 8.1875 -0.78125 8.070312 -0.492188 7.84375 -0.265625 C 7.613281 -0.0351562 7.28125 0.078125 6.84375 0.078125 C 6.0625 0.078125 5.394531 -0.0195312 4.84375 -0.21875 C 4.289062 -0.414062 3.890625 -0.773438 3.640625 -1.296875 C 3.335938 -0.890625 2.976562 -0.585938 2.5625 -0.390625 C 2.15625 -0.191406 1.734375 -0.0625 1.296875 0 C 0.859375 0.0507812 0.425781 0.078125 0 0.078125 Z M 2.640625 -7.09375 C 2.316406 -7.09375 2.039062 -7.207031 1.8125 -7.4375 C 1.582031 -7.664062 1.46875 -7.9375 1.46875 -8.25 C 1.46875 -8.570312 1.582031 -8.847656 1.8125 -9.078125 C 2.039062 -9.316406 2.316406 -9.4375 2.640625 -9.4375 C 2.953125 -9.4375 3.21875 -9.316406 3.4375 -9.078125 C 3.664062 -8.847656 3.78125 -8.570312 3.78125 -8.25 C 3.78125 -7.9375 3.664062 -7.664062 3.4375 -7.4375 C 3.21875 -7.207031 2.953125 -7.09375 2.640625 -7.09375 Z M 5.546875 -7.078125 C 5.210938 -7.078125 4.929688 -7.1875 4.703125 -7.40625 C 4.472656 -7.632812 4.359375 -7.910156 4.359375 -8.234375 C 4.359375 -8.554688 4.472656 -8.832031 4.703125 -9.0625 C 4.929688 -9.300781 5.210938 -9.421875 5.546875 -9.421875 C 5.859375 -9.421875 6.125 -9.300781 6.34375 -9.0625 C 6.5625 -8.832031 6.671875 -8.554688 6.671875 -8.234375 C 6.671875 -7.910156 6.5625 -7.632812 6.34375 -7.40625 C 6.125 -7.1875 5.859375 -7.078125 5.546875 -7.078125 Z M 5.546875 -7.078125" transform="translate(231.078 68.528)"/></g></g></g><g fill="#99621B"><g><g><path d="M 0 0.078125 L 0.171875 -2.265625 C 0.535156 -2.265625 0.832031 -2.296875 1.0625 -2.359375 C 1.300781 -2.421875 1.492188 -2.554688 1.640625 -2.765625 C 1.796875 -2.984375 1.929688 -3.3125 2.046875 -3.75 C 2.171875 -4.195312 2.304688 -4.800781 2.453125 -5.5625 L 4.625 -5.15625 C 4.582031 -4.914062 4.523438 -4.609375 4.453125 -4.234375 C 4.378906 -3.867188 4.34375 -3.550781 4.34375 -3.28125 C 4.34375 -2.96875 4.441406 -2.71875 4.640625 -2.53125 C 4.835938 -2.351562 5.21875 -2.265625 5.78125 -2.265625 C 6.0625 -2.265625 6.300781 -2.296875 6.5 -2.359375 C 6.707031 -2.421875 6.882812 -2.554688 7.03125 -2.765625 C 7.1875 -2.984375 7.320312 -3.320312 7.4375 -3.78125 C 7.5625 -4.25 7.675781 -4.878906 7.78125 -5.671875 L 10 -5.328125 C 9.9375 -4.929688 9.867188 -4.515625 9.796875 -4.078125 C 9.734375 -3.648438 9.703125 -3.320312 9.703125 -3.09375 C 9.703125 -2.882812 9.800781 -2.691406 10 -2.515625 C 10.207031 -2.347656 10.628906 -2.265625 11.265625 -2.265625 C 11.710938 -2.265625 12.066406 -2.351562 12.328125 -2.53125 C 12.597656 -2.707031 12.734375 -3.019531 12.734375 -3.46875 C 12.734375 -3.882812 12.632812 -4.425781 12.4375 -5.09375 C 12.25 -5.757812 12.03125 -6.460938 11.78125 -7.203125 L 14.140625 -7.90625 C 14.316406 -7.425781 14.472656 -6.914062 14.609375 -6.375 C 14.753906 -5.832031 14.867188 -5.300781 14.953125 -4.78125 C 15.035156 -4.269531 15.078125 -3.832031 15.078125 -3.46875 C 15.078125 -2.3125 14.738281 -1.429688 14.0625 -0.828125 C 13.382812 -0.222656 12.503906 0.078125 11.421875 0.078125 C 10.640625 0.078125 10.03125 -0.0078125 9.59375 -0.1875 C 9.15625 -0.375 8.84375 -0.707031 8.65625 -1.1875 C 8.4375 -0.800781 8.191406 -0.515625 7.921875 -0.328125 C 7.660156 -0.148438 7.351562 -0.0390625 7 0 C 6.644531 0.0507812 6.222656 0.078125 5.734375 0.078125 C 5.429688 0.078125 5.128906 0.0507812 4.828125 0 C 4.523438 -0.0390625 4.234375 -0.140625 3.953125 -0.296875 C 3.679688 -0.460938 3.445312 -0.726562 3.25 -1.09375 C 2.875 -0.570312 2.410156 -0.242188 1.859375 -0.109375 C 1.304688 0.015625 0.6875 0.078125 0 0.078125 Z M 0 0.078125" transform="translate(238.262 68.528)"/></g></g></g><g clip-path="url(#p)"><g clip-path="url(#q)"><g clip-path="url(#r)"><path fill="#FC9881" d="M 160.28125 116.367188 C 157.765625 118.753906 154.261719 122.949219 151.605469 126.285156 C 153.648438 121.964844 156.824219 115.671875 159.171875 112.828125 C 162.929688 108.273438 170.25 106.894531 170.25 106.894531 L 169.085938 104.914062 C 169.085938 104.914062 162.09375 106.019531 157.460938 110.570312 C 155.542969 112.453125 153.472656 116.253906 151.710938 120.0625 C 153.085938 113.410156 154.742188 105.792969 155.457031 104.046875 C 156.792969 100.808594 160.792969 98.664062 160.792969 98.664062 L 158.757812 97.734375 C 158.757812 97.734375 155.3125 98.644531 152.574219 103.863281 C 150.96875 106.90625 149.453125 115.605469 148.464844 122.3125 C 148.167969 119.59375 147.921875 116.933594 147.890625 115.449219 C 147.808594 111.578125 141.5 105.597656 141.5 105.597656 L 139.976562 107.890625 C 139.976562 107.890625 143.476562 109.441406 145.195312 113.683594 C 145.679688 114.875 146.054688 116.777344 146.347656 118.90625 C 146.101562 118.589844 145.824219 118.304688 145.53125 118.035156 C 143.070312 115.910156 136.144531 113.617188 136.144531 113.617188 L 135.480469 115.675781 C 135.480469 115.675781 139.480469 116.902344 143.476562 119.902344 C 145.703125 121.578125 146.652344 124.425781 147.0625 126.617188 C 147.234375 129.363281 147.289062 131.410156 147.289062 131.410156 L 148.824219 131.308594 L 149.984375 131.382812 C 149.984375 131.382812 157.144531 122.636719 162.351562 119.25 C 167.5625 115.867188 175.113281 116.027344 175.113281 116.027344 L 175.238281 114.058594 C 175.238281 114.046875 164.902344 111.980469 160.28125 116.367188 Z M 160.28125 116.367188"/></g></g></g><g clip-path="url(#s)"><g clip-path="url(#t)"><g clip-path="url(#u)"><path fill="#DBA35B" d="M 22.625 99.386719 C 23.066406 99.4375 23.503906 99.550781 23.9375 99.71875 C 24.140625 99.789062 24.339844 99.886719 24.542969 99.988281 C 24.746094 100.085938 24.945312 100.214844 25.117188 100.308594 C 25.863281 100.757812 26.539062 101.351562 27.0625 102.054688 C 27.203125 102.238281 27.339844 102.421875 27.476562 102.601562 C 27.585938 102.785156 27.695312 102.964844 27.804688 103.148438 C 27.988281 103.539062 28.175781 103.929688 28.300781 104.34375 C 28.378906 104.582031 28.453125 104.792969 28.53125 105.03125 C 28.582031 105.179688 28.632812 105.328125 28.683594 105.480469 L 28.949219 104.964844 C 29.046875 104.796875 29.144531 104.625 29.242188 104.453125 C 29.335938 104.3125 29.464844 104.171875 29.589844 104.035156 C 29.871094 103.753906 30.148438 103.507812 30.484375 103.289062 C 30.792969 103.074219 31.097656 102.882812 31.402344 102.726562 C 31.707031 102.566406 32.074219 102.320312 32.410156 102.164062 C 32.773438 101.976562 33.136719 101.851562 33.496094 101.753906 C 33.675781 101.703125 33.855469 101.65625 34.035156 101.636719 C 34.210938 101.617188 34.421875 101.570312 34.597656 101.578125 C 34.804688 101.558594 35.011719 101.570312 35.21875 101.582031 C 35.425781 101.59375 35.601562 101.632812 35.777344 101.671875 C 35.953125 101.707031 36.15625 101.75 36.328125 101.816406 C 36.503906 101.882812 36.707031 101.925781 36.882812 101.964844 C 37.261719 102.070312 37.609375 102.238281 37.953125 102.402344 C 38.269531 102.566406 38.617188 102.730469 38.929688 102.921875 C 39.246094 103.113281 39.558594 103.367188 39.839844 103.613281 C 40.121094 103.863281 40.371094 104.171875 40.59375 104.445312 C 40.84375 104.722656 41.066406 105.027344 41.257812 105.332031 C 41.445312 105.632812 41.636719 105.964844 41.796875 106.296875 C 41.957031 106.625 42.085938 106.957031 42.183594 107.3125 C 42.285156 107.667969 42.351562 108.054688 42.421875 108.410156 C 42.492188 108.765625 42.5625 109.117188 42.601562 109.472656 C 42.617188 109.707031 42.632812 109.972656 42.652344 110.207031 C 42.839844 109.984375 43.085938 109.792969 43.304688 109.597656 C 43.613281 109.351562 43.949219 109.164062 44.3125 108.976562 C 44.648438 108.820312 45.007812 108.695312 45.371094 108.566406 C 45.460938 108.542969 45.550781 108.515625 45.640625 108.492188 C 45.730469 108.46875 45.847656 108.445312 45.96875 108.421875 C 46.148438 108.375 46.328125 108.355469 46.503906 108.335938 C 46.863281 108.265625 47.25 108.257812 47.605469 108.21875 C 47.992188 108.179688 48.347656 108.167969 48.730469 108.191406 L 48.789062 108.191406 C 49.144531 108.210938 49.523438 108.261719 49.878906 108.308594 C 50.257812 108.386719 50.605469 108.496094 50.953125 108.628906 C 51.300781 108.765625 51.617188 108.929688 51.960938 109.125 C 52.132812 109.21875 52.277344 109.316406 52.449219 109.441406 C 52.617188 109.570312 52.757812 109.691406 52.898438 109.847656 C 53.179688 110.097656 53.402344 110.371094 53.65625 110.648438 C 53.875 110.953125 54.09375 111.257812 54.285156 111.5625 C 54.476562 111.863281 54.664062 112.195312 54.855469 112.527344 C 55.203125 113.191406 55.433594 113.878906 55.601562 114.589844 C 55.671875 114.945312 55.738281 115.328125 55.835938 115.714844 C 55.933594 116.101562 56.003906 116.457031 56.042969 116.839844 C 56.082031 117.21875 56.152344 117.574219 56.191406 117.957031 C 56.230469 118.339844 56.214844 118.632812 56.253906 119.015625 C 56.300781 119.75 56.351562 120.484375 56.402344 121.191406 C 56.414062 121.542969 56.453125 121.925781 56.460938 122.308594 C 56.46875 122.6875 56.480469 123.039062 56.492188 123.390625 C 56.484375 124.066406 56.480469 124.707031 56.445312 125.378906 C 56.429688 125.644531 56.449219 125.878906 56.433594 126.140625 C 56.417969 126.402344 56.402344 126.695312 56.386719 126.988281 C 56.359375 127.511719 56.332031 128.011719 56.304688 128.535156 C 56.28125 128.972656 56.285156 129.441406 56.261719 129.910156 C 56.238281 130.375 56.210938 130.84375 56.214844 131.3125 C 56.195312 131.691406 56.203125 132.074219 56.183594 132.453125 C 56.164062 132.832031 56.171875 133.214844 56.15625 133.5625 L 56.152344 133.59375 L 56.152344 133.621094 C 56.117188 134.292969 56.078125 134.996094 56.039062 135.695312 C 56.023438 136.046875 55.972656 136.394531 55.957031 136.746094 C 55.9375 137.09375 55.855469 137.472656 55.835938 137.851562 C 55.816406 138.230469 55.765625 138.636719 55.714844 139.046875 C 55.664062 139.453125 55.644531 139.773438 55.628906 140.125 L 55.625 140.152344 C 55.621094 140.269531 55.582031 140.386719 55.492188 140.46875 C 55.515625 140.527344 55.484375 140.613281 55.449219 140.699219 C 55.382812 140.785156 55.320312 140.871094 55.203125 140.890625 C 55.113281 140.917969 54.992188 140.941406 54.902344 140.933594 C 54.816406 140.929688 54.726562 140.953125 54.636719 140.949219 C 54.398438 140.964844 54.132812 140.980469 53.894531 141 C 53.714844 141.019531 53.539062 141.039062 53.359375 141.058594 L 52.765625 141.113281 L 51.457031 141.25 C 51.042969 141.285156 50.625 141.320312 50.210938 141.359375 L 48.933594 141.4375 C 48.046875 141.476562 47.183594 141.546875 46.296875 141.585938 C 45.40625 141.628906 44.609375 141.644531 43.777344 141.660156 C 43.335938 141.664062 42.890625 141.667969 42.449219 141.675781 C 42.003906 141.679688 41.621094 141.6875 41.207031 141.667969 C 40.792969 141.644531 40.292969 141.648438 39.820312 141.621094 C 39.347656 141.597656 38.933594 141.574219 38.523438 141.554688 L 37.757812 141.511719 C 37.578125 141.503906 37.402344 141.492188 37.226562 141.484375 L 35.957031 141.417969 C 35.074219 141.367188 34.191406 141.292969 33.304688 141.246094 L 31.804688 141.136719 C 31.273438 141.105469 30.773438 141.082031 30.242188 141.050781 C 29.472656 141.039062 28.707031 141.027344 27.96875 141.019531 C 27.230469 141.007812 26.433594 140.964844 25.695312 140.925781 C 24.808594 140.910156 23.925781 140.890625 23.039062 140.871094 C 22.59375 140.878906 22.152344 140.882812 21.738281 140.859375 C 21.324219 140.839844 20.855469 140.8125 20.382812 140.789062 C 20.175781 140.777344 20 140.769531 19.792969 140.757812 C 19.378906 140.734375 18.964844 140.742188 18.550781 140.75 C 18.136719 140.757812 17.632812 140.757812 17.1875 140.792969 C 16.300781 140.804688 15.414062 140.816406 14.53125 140.769531 C 14.414062 140.761719 14.265625 140.753906 14.148438 140.71875 C 14.03125 140.710938 13.882812 140.675781 13.769531 140.609375 C 13.625 140.542969 13.546875 140.363281 13.554688 140.191406 C 13.527344 140.160156 13.53125 140.128906 13.53125 140.101562 C 13.503906 140.039062 13.507812 140.011719 13.507812 139.953125 C 13.511719 139.921875 13.515625 139.867188 13.515625 139.835938 C 13.515625 139.808594 13.519531 139.75 13.523438 139.71875 C 13.527344 139.601562 13.503906 139.511719 13.507812 139.398438 L 13.480469 138.808594 C 13.476562 138.371094 13.46875 137.960938 13.433594 137.519531 C 13.398438 137.078125 13.386719 136.695312 13.347656 136.3125 C 13.308594 135.929688 13.304688 135.460938 13.300781 135.023438 C 13.285156 134.171875 13.242188 133.320312 13.230469 132.441406 C 13.222656 132.03125 13.214844 131.621094 13.238281 131.210938 C 13.257812 130.804688 13.226562 130.332031 13.21875 129.894531 C 13.214844 129.453125 13.238281 129.015625 13.230469 128.578125 C 13.222656 128.136719 13.246094 127.726562 13.238281 127.316406 C 13.230469 126.90625 13.226562 126.46875 13.25 126.03125 C 13.273438 125.59375 13.265625 125.179688 13.257812 124.742188 C 13.25 124.300781 13.246094 123.890625 13.269531 123.453125 C 13.292969 123.015625 13.285156 122.578125 13.308594 122.136719 C 13.332031 121.699219 13.324219 121.320312 13.316406 120.878906 C 13.308594 120.441406 13.332031 120.0625 13.324219 119.648438 C 13.316406 119.238281 13.335938 118.832031 13.359375 118.394531 C 13.382812 117.957031 13.347656 117.542969 13.339844 117.132812 C 13.332031 116.722656 13.355469 116.285156 13.347656 115.875 C 13.339844 115.464844 13.335938 114.996094 13.296875 114.582031 C 13.257812 113.703125 13.242188 112.851562 13.230469 111.972656 C 13.226562 111.535156 13.246094 111.125 13.269531 110.6875 C 13.292969 110.25 13.316406 109.8125 13.339844 109.375 C 13.363281 108.933594 13.386719 108.496094 13.441406 108.0625 C 13.492188 107.625 13.546875 107.160156 13.628906 106.722656 C 13.765625 105.851562 13.988281 105.015625 14.296875 104.210938 C 14.464844 103.8125 14.664062 103.441406 14.890625 103.074219 C 15.117188 102.703125 15.371094 102.367188 15.683594 102.03125 C 15.996094 101.726562 16.308594 101.421875 16.648438 101.144531 C 16.957031 100.871094 17.296875 100.625 17.632812 100.40625 C 17.816406 100.269531 18.03125 100.164062 18.214844 100.027344 C 18.398438 99.921875 18.609375 99.816406 18.824219 99.710938 C 19.003906 99.632812 19.214844 99.554688 19.425781 99.507812 C 19.664062 99.460938 19.875 99.414062 20.113281 99.367188 C 20.320312 99.351562 20.558594 99.304688 20.765625 99.316406 C 20.972656 99.296875 21.179688 99.308594 21.386719 99.289062 C 21.597656 99.273438 21.800781 99.285156 22.007812 99.292969 C 22.214844 99.304688 22.390625 99.34375 22.625 99.386719 Z M 22.625 99.386719"/></g></g></g></svg>